<?xml version="1.0" encoding="utf-8"?>
<!-- Generator: Adobe Illustrator 16.0.0, SVG Export Plug-In . SVG Version: 6.00 Build 0)  -->
<!DOCTYPE svg PUBLIC "-//W3C//DTD SVG 1.1//EN" "http://www.w3.org/Graphics/SVG/1.1/DTD/svg11.dtd">
<svg version="1.1" xmlns="http://www.w3.org/2000/svg" xmlns:xlink="http://www.w3.org/1999/xlink" x="0px" y="0px"
	 width="552.298px" height="609.461px" viewBox="0 0 552.298 609.461" enable-background="new 0 0 552.298 609.461"
	 xml:space="preserve">
<g id="Layer_3">
</g>
<g id="Layer_1">
	<g opacity="0.1">
		<g>
			<path fill="#FAAF40" d="M548.69,65.231c-31.653,0-57.384-27.528-57.384-61.392c0-2.147-1.615-3.84-3.609-3.84
				c-1.982,0-3.607,1.693-3.607,3.84c0,41.72-37.444,61.392-57.395,61.392c-1.994,0-3.597,1.744-3.597,3.872
				c0,2.148,1.603,3.842,3.597,3.842c31.648,0,57.395,27.563,57.395,61.405c0,2.141,1.625,3.88,3.607,3.88
				c1.994,0,3.609-1.739,3.609-3.88c0-33.842,25.746-61.405,57.384-61.405c1.988,0,3.607-1.694,3.607-3.842
				C552.298,66.976,550.679,65.231,548.69,65.231z"/>
			<g>
				<path fill="#90CBEF" d="M139.612,500.181c-6.162,5.883-12.192,11.802-19.967,18.059c-24.823,20.052-52.823,34.934-82.143,47.013
					c-7.244,3.016-24.852,7.747-16.453,18.969c4.123,5.404,13.15,7.095,19.452,7.437c51.104,2.891,90.477-28.292,129.688-57.037
					c2.249-1.628,4.128-3.11,5.957-4.55C163.015,520.216,149.674,508.951,139.612,500.181z"/>
			</g>
			<g>
				<path fill="#00A0E3" d="M181.413,477.686C63.583,378.043-12.383,252.278,26.82,192.156c-1.084,0.862-2.139,1.658-3.192,2.482
					c-63.812,53.436,8.424,199.958,135.239,307.326c115.59,97.801,248.371,137.908,293.766,82.13
					C397.53,613.601,284.935,565.154,181.413,477.686z"/>
			</g>
			<g>
				<path fill="#999999" d="M322.254,276.516c-9.59-8.122-19.278-15.846-29.011-23.224l-19.486,19.711
					c9.339,7.178,18.666,14.693,27.91,22.53c117.764,99.798,193.395,225.515,153.788,285.165c1.053-0.809,2.164-1.55,3.202-2.391
					C522.914,525.28,448.976,384.101,322.254,276.516z"/>
				<path fill="#999999" d="M30.159,188.467c42.025-22.187,117.037,0.498,195.962,51.005l19.046-19.262
					C153.501,163.508,65.874,145.188,30.159,188.467z"/>
			</g>
			<path fill="#00A650" d="M259.398,181.216c10.132,24.607,1.228,51.79-19.987,60.73c-21.166,8.926-46.597-3.743-56.799-28.303
				c-10.165-24.575-1.32-51.782,19.935-60.68C223.753,143.966,249.164,156.61,259.398,181.216z"/>
			<g>
				<path fill="#00A650" d="M505.307,395.788c-33.803-18.577-73.7-21.447-111.513-20.638c-14.12,0.294-28.189,1.281-42.256,2.278
					c-18.993,1.377-43.925,2.416-55.977-15.534c-18.427-27.437,13.78-49.968,31.318-65.01
					c24.833-21.335,47.699-45.736,68.892-70.661c15.375-18.104,28.461-38.78,36.292-61.312c1.412-4.04,15.052-39.885,5.169-40.784
					c-8.843-0.834-18.843,13.598-23.833,19.302c-8.669,9.903-16.753,20.355-26.112,29.645
					c-42.44,42.241-95.359,71.745-154.383,82.729c-50.384,9.386-89.262,5.273-142.721,41.09
					c-9.732,6.499-19.265,13.814-25.851,23.656c-16.817,25.155,30.838,7.589,38.164,5.177
					c35.975-11.692,100.239-15.949,101.913,43.198c0.6,20.51-3.552,38.697-8.959,58.414c-3.562,12.991-9.083,25.004-15.979,36.187
					c11.427,9.783,25.353,21.209,38.428,30.619c15.435-11.892,31.144-23.439,47.773-33.782
					c39.747-24.73,84.12-36.033,130.714-41.419c25.577-2.953,64.548-1.313,89.392,5.262c8.734,2.281,32.627,9.521,35.61-5.144
					C523.148,410.363,511.791,399.345,505.307,395.788z"/>
			</g>
		</g>
	</g>
	<rect x="351.379" y="-285.191" fill="none" width="223" height="320.14"/>
</g>
<g id="Layer_5">
</g>
<g id="menu" display="none">
</g>
<g id="Layer_4" display="none">
</g>
</svg>
