<?xml version="1.0" encoding="utf-8"?>
<!-- Generator: Adobe Illustrator 16.0.0, SVG Export Plug-In . SVG Version: 6.00 Build 0)  -->
<!DOCTYPE svg PUBLIC "-//W3C//DTD SVG 1.1//EN" "http://www.w3.org/Graphics/SVG/1.1/DTD/svg11.dtd">
<svg version="1.1" xmlns="http://www.w3.org/2000/svg" xmlns:xlink="http://www.w3.org/1999/xlink" x="0px" y="0px"
	 width="27.775px" height="27.775px" viewBox="0 0 27.775 27.775" enable-background="new 0 0 27.775 27.775" xml:space="preserve">
<g id="Layer_3">
</g>
<g id="Layer_1">
</g>
<g id="Layer_5">
	<g>
		<path fill="#232434" d="M27.775,13.889c0,7.67-6.22,13.886-13.887,13.886C6.219,27.775,0,21.559,0,13.889C0,6.22,6.219,0,13.888,0
			C21.555,0,27.775,6.22,27.775,13.889z"/>
		<path fill="#FFFFFF" d="M23.067,6.058H4.704c-0.662,0-1.193,0.533-1.196,1.195v13.268c0.003,0.663,0.533,1.193,1.196,1.196h18.364
			c0.665-0.003,1.196-0.533,1.201-1.196V7.253C24.263,6.591,23.732,6.058,23.067,6.058z M14.574,14.897
			c-0.142,0.147-0.39,0.249-0.655,0.246c-0.265,0-0.515-0.095-0.662-0.25L5.966,7.504h15.951L14.574,14.897z M10.202,13.86
			l-5.245,5.365V8.545L10.202,13.86z M11.221,14.893l1.005,1.02c0.471,0.468,1.09,0.68,1.69,0.68
			c0.603-0.002,1.22-0.208,1.686-0.674l0.986-0.999l5.226,5.348H5.961L11.221,14.893z M17.614,13.894l5.206-5.239v10.571
			L17.614,13.894z"/>
	</g>
</g>
<g id="menu" display="none">
</g>
<g id="Layer_4" display="none">
</g>
</svg>
