<?xml version="1.0" encoding="utf-8"?>
<!-- Generator: Adobe Illustrator 16.0.0, SVG Export Plug-In . SVG Version: 6.00 Build 0)  -->
<!DOCTYPE svg PUBLIC "-//W3C//DTD SVG 1.1//EN" "http://www.w3.org/Graphics/SVG/1.1/DTD/svg11.dtd">
<svg version="1.1" xmlns="http://www.w3.org/2000/svg" xmlns:xlink="http://www.w3.org/1999/xlink" x="0px" y="0px"
	 width="75.036px" height="80px" viewBox="0 0 75.036 80" enable-background="new 0 0 75.036 80" xml:space="preserve">
<g id="Layer_3">
</g>
<g id="Layer_1">
</g>
<g id="Layer_5">
	<g>
		<g>
			<g>
				<path fill-rule="evenodd" clip-rule="evenodd" fill="#00A69A" d="M46.625,8.557c1.188-1.103,2.227-2.237,3.429-3.156
					c7.977-6.098,18.875-2.078,21.035,7.731c0.826,3.747,0.146,7.357-1.136,10.875c-2.76,7.571-7.492,13.724-13.691,18.798
					c-2.755,2.254-5.699,4.232-8.854,5.88c-0.356,0.185-0.968,0.229-1.304,0.046c-7.84-4.229-14.443-9.837-19.176-17.475
					c-2.389-3.856-4.12-7.978-4.792-12.498c-1.043-7.015,2.814-13.892,9.401-15.722c5.274-1.466,9.734,0.15,13.57,3.85
					c0.289,0.278,0.553,0.579,0.822,0.875C46.179,8.037,46.419,8.321,46.625,8.557z"/>
			</g>
			<g>
				<path fill-rule="evenodd" clip-rule="evenodd" fill="#00A69A" d="M39.655,61.08c4.558,2.536,9.328,3.59,14.438,2.861
					c1.755-0.25,3.524-0.429,5.259-0.779c2-0.403,3.714-1.409,5.216-2.805c1.797-1.671,3.848-2.855,6.372-3.019
					c1.026-0.066,1.993,0.127,2.866,0.686c1.387,0.887,1.576,2.246,0.491,3.479c-0.18,0.206-0.363,0.408-0.566,0.637
					c0.079,0.089,0.126,0.184,0.203,0.226c1.141,0.608,1.349,0.995,0.842,2.195c-0.283,0.669-0.727,1.333-1.262,1.818
					c-1.071,0.97-2.222,1.866-3.404,2.7c-1.961,1.381-3.97,2.695-5.967,4.024c-1.581,1.053-3.283,1.698-5.204,1.941
					c-3.914,0.495-7.804,1.183-11.708,1.752c-1.829,0.267-3.668,0.467-5.506,0.657c-1.654,0.171-3.244-0.145-4.746-0.836
					c-4.922-2.264-9.836-4.547-14.752-6.824c-1.406-0.65-2.821-1.277-4.21-1.961c-1.754-0.864-3.604-1.309-5.541-1.456
					c-1.076-0.082-1.675-0.73-1.678-1.821c-0.01-4.928-0.009-9.855-0.004-14.783c0.002-0.864,0.346-1.364,1.187-1.604
					c5.874-1.684,11.815-2.823,17.968-2.028c3.159,0.408,6.162,1.392,8.906,2.967c2.657,1.525,5.491,1.99,8.467,2.157
					c3.701,0.208,7.349,0.805,10.895,1.922c1.425,0.45,2.653,1.165,3.388,2.539c0.346,0.646,0.465,1.312,0.211,2.021
					c-0.646,1.804-1.53,3.402-3.589,3.877c-0.501,0.116-1.044,0.117-1.562,0.085c-3.716-0.231-7.429-0.521-11.146-0.718
					c-1.716-0.091-3.439-0.02-5.161-0.013C40.143,60.979,39.929,61.039,39.655,61.08z"/>
			</g>
			<g>
				<path fill-rule="evenodd" clip-rule="evenodd" fill="#00A69A" d="M0.001,57.158c0-3.6-0.002-7.199,0-10.798
					c0.002-1.288,0.542-1.839,1.813-1.843c1.65-0.005,3.3-0.005,4.949-0.001c1.242,0.004,1.791,0.545,1.791,1.778
					c0.001,7.249,0,14.498-0.004,21.746c-0.001,1.328-0.486,1.818-1.796,1.822c-1.7,0.007-3.399,0.011-5.1-0.002
					c-1.096-0.009-1.648-0.572-1.65-1.678C-0.003,64.506,0.001,60.832,0.001,57.158z"/>
			</g>
		</g>
	</g>
</g>
<g id="menu" display="none">
</g>
<g id="Layer_4" display="none">
</g>
</svg>
