<?xml version="1.0" encoding="utf-8"?>
<!-- Generator: Adobe Illustrator 16.0.0, SVG Export Plug-In . SVG Version: 6.00 Build 0)  -->
<!DOCTYPE svg PUBLIC "-//W3C//DTD SVG 1.1//EN" "http://www.w3.org/Graphics/SVG/1.1/DTD/svg11.dtd">
<svg version="1.1" xmlns="http://www.w3.org/2000/svg" xmlns:xlink="http://www.w3.org/1999/xlink" x="0px" y="0px"
	 width="128.858px" height="80px" viewBox="0 0 128.858 80" enable-background="new 0 0 128.858 80" xml:space="preserve">
<g id="Layer_3">
</g>
<g id="Layer_1">
</g>
<g id="Layer_5">
	<g>
		<g>
			<path fill-rule="evenodd" clip-rule="evenodd" fill="#00A69A" d="M128.273,38.817c-3.83-5.828-7.694-11.633-11.522-17.462
				c-0.664-1.01-1.534-1.401-2.724-1.393c-5.453,0.037-10.906,0.055-16.359,0.019c-1.219-0.008-2.043,0.435-2.688,1.437
				c-2.739,4.25-5.5,8.488-8.268,12.719c-0.436,0.667-0.952,1.284-1.49,2.004c-0.988-1.389-1.878-2.562-2.685-3.789
				c-2.371-3.611-4.72-7.237-7.052-10.873c-0.635-0.991-1.436-1.523-2.657-1.518c-5.551,0.028-11.105-0.041-16.655,0.074
				c-0.827,0.017-1.86,0.64-2.41,1.303c-1.152,1.392-2.042,2.999-3.046,4.515c-2.243,3.389-4.49,6.777-6.817,10.288
				c-0.39-0.531-0.692-0.909-0.958-1.311c-2.899-4.384-5.817-8.755-8.67-13.167c-0.775-1.198-1.716-1.725-3.157-1.71
				c-5.356,0.056-10.712,0.048-16.067,0.005c-1.343-0.01-2.186,0.562-2.889,1.643C9.316,25.964,1.356,38.117,0.504,39.437
				c-0.548,0.848-0.714,1.702-0.17,2.609c0.885,1.476,2.82,1.45,3.91-0.094c0.134-0.189,6.274-9.207,9.067-13.426
				c0.524-0.793,1.056-1.582,1.584-2.373c0.276,4.666,0.275,9.221,0.276,13.775c0,10.318-0.011,20.635,0.008,30.953
				c0.004,2.457,1.519,4.104,3.668,4.118c2.204,0.013,3.684-1.71,3.677-4.239c-0.018-6.387-0.022-12.774-0.03-19.162
				c-0.003-2.25,0-4.5,0-6.687c1.564-0.485,1.355,0.496,1.356,1.256c0.005,7.96,0.003,15.92,0.011,23.88
				c0,0.637,0.008,1.282,0.097,1.911c0.245,1.73,1.701,2.987,3.458,3.039c1.797,0.053,3.392-1.208,3.665-2.978
				c0.118-0.772,0.111-1.567,0.112-2.352c0.006-13.907,0.005-27.814,0.005-41.722c0-0.564,0-1.129,0-1.692
				c0.536,0.271,0.774,0.618,1.006,0.968c3.089,4.67,6.168,9.347,9.27,14.008c1.501,2.257,3.323,2.217,4.834-0.073
				c1.434-2.172,2.861-4.35,4.299-6.52c1.857-2.801,3.723-5.596,5.584-8.394c0.107,0.024,0.214,0.049,0.321,0.073
				c0,0.563,0,1.125,0,1.688c0,10.271-0.002,20.542-0.002,30.813c0,4.076-0.039,8.153,0.022,12.229
				c0.035,2.375,1.585,3.951,3.685,3.949c2.123-0.002,3.592-1.577,3.637-3.963c0.035-1.866,0.012-3.733,0.012-5.6
				c0-6.438,0-12.875-0.002-19.313c0-0.81-0.107-1.702,1.351-1.188c0,0.491,0,1.021,0,1.552c0,6.34-0.003,12.679,0,19.018
				c0.001,2.063-0.047,4.129,0.051,6.188c0.085,1.82,1.549,3.161,3.373,3.287c1.734,0.12,3.32-0.982,3.732-2.694
				c0.169-0.706,0.19-1.459,0.191-2.191c0.012-9.33,0.01-18.66,0.009-27.99c0-4.81-0.003-9.618,0.001-14.426
				c0-0.486,0.041-0.972,0.082-1.872c2.879,4.373,5.492,8.343,8.105,12.312c0.73,1.107,1.422,2.242,2.204,3.312
				c1.295,1.774,3.365,1.751,4.494,0.035c3.236-4.92,6.494-9.826,9.749-14.733c0.137-0.207,0.333-0.375,0.698-0.777
				c0,10.82-0.001,21.326,0,31.831c0,4.472-0.03,8.943,0.02,13.414c0.024,2.175,1.375,3.613,3.352,3.78
				c2.218,0.188,3.908-1.439,3.949-3.951c0.056-3.584,0.019-7.17,0.021-10.757c0.001-4.765,0.002-9.531,0.001-14.296
				c0-0.788-0.026-1.594,1.295-0.976c0,2.876,0,5.815,0,8.754c0.001,5.797-0.025,11.594,0.017,17.391
				c0.021,2.722,2.296,4.427,4.773,3.683c1.661-0.499,2.567-1.943,2.569-4.174c0.005-14.3,0.003-28.6,0.003-42.899
				c0-0.51,0-1.02,0-1.935c0.507,0.718,0.761,1.059,0.996,1.414c3.118,4.708,6.244,9.412,9.341,14.134
				c0.758,1.154,1.707,1.782,3.095,1.339C128.902,42.202,129.339,40.439,128.273,38.817z"/>
			<path fill-rule="evenodd" clip-rule="evenodd" fill="#00A69A" d="M23.151,18.304c3.711,0.008,6.675-2.911,6.69-6.592
				c0.016-3.674-2.92-6.658-6.605-6.711c-3.641-0.054-6.679,2.963-6.672,6.626C16.569,15.379,19.447,18.296,23.151,18.304z"/>
			<path fill-rule="evenodd" clip-rule="evenodd" fill="#00A69A" d="M64.522,18.3c3.713,0.009,6.657-2.918,6.65-6.612
				c-0.007-3.706-2.939-6.668-6.619-6.686c-3.655-0.018-6.646,2.972-6.657,6.651C57.886,15.344,60.824,18.292,64.522,18.3z"/>
			<path fill-rule="evenodd" clip-rule="evenodd" fill="#00A69A" d="M105.81,18.3c3.736,0.029,6.662-2.837,6.693-6.557
				c0.032-3.705-2.852-6.675-6.542-6.74c-3.622-0.064-6.689,2.938-6.731,6.585C99.188,15.257,102.145,18.272,105.81,18.3z"/>
		</g>
	</g>
</g>
<g id="menu" display="none">
</g>
<g id="Layer_4" display="none">
</g>
</svg>
