<?xml version="1.0" encoding="utf-8"?>
<!-- Generator: Adobe Illustrator 16.0.0, SVG Export Plug-In . SVG Version: 6.00 Build 0)  -->
<!DOCTYPE svg PUBLIC "-//W3C//DTD SVG 1.1//EN" "http://www.w3.org/Graphics/SVG/1.1/DTD/svg11.dtd">
<svg version="1.1" xmlns="http://www.w3.org/2000/svg" xmlns:xlink="http://www.w3.org/1999/xlink" x="0px" y="0px"
	 width="97.373px" height="80px" viewBox="0 0 97.373 80" enable-background="new 0 0 97.373 80" xml:space="preserve">
<g id="Layer_3">
</g>
<g id="Layer_1">
</g>
<g id="Layer_5">
	<g>
		<g>
			<path fill-rule="evenodd" clip-rule="evenodd" fill="#00A69A" d="M53.827,55.427c3.297,4.539,6.595,9.078,9.918,13.653
				c-0.805,0.673-1.568,1.311-2.393,2.001c-1.441-1.978-2.874-3.943-4.305-5.909c-2.707-3.721-5.423-7.437-8.107-11.174
				c-0.416-0.578-0.761-0.747-1.489-0.491c-11.469,4.04-22.95,8.05-34.437,12.04c-0.767,0.266-1.105,0.59-1.166,1.466
				c-0.18,2.65-2.435,4.875-5.137,5.235c-2.706,0.362-5.404-1.284-6.349-3.87c-0.962-2.636,0.038-5.611,2.393-7.113
				c2.327-1.484,5.445-1.214,7.353,0.823c0.729,0.779,1.3,0.754,2.169,0.448c10.804-3.798,21.616-7.566,32.427-11.347
				c0.306-0.106,0.597-0.252,1.035-0.44c-5.385-4.443-10.648-8.786-15.93-13.143c0.636-0.811,1.23-1.571,1.919-2.448
				c4.913,4.046,9.848,8.112,15.018,12.371c-0.278-1.878-0.501-3.438-0.741-4.995c-1.129-7.313-2.261-14.626-3.394-21.939
				c-0.407-2.638-0.836-5.274-1.216-7.916c-0.089-0.63-0.428-0.807-0.973-0.956c-2.798-0.758-4.717-3.426-4.459-6.136
				c0.284-2.974,2.584-5.34,5.411-5.566c2.958-0.236,5.564,1.593,6.341,4.449c0.678,2.506-0.354,5.128-2.667,6.576
				c-0.549,0.344-0.7,0.667-0.601,1.299c1.285,8.178,2.542,16.361,3.812,24.542c0.35,2.268,0.713,4.533,1.313,6.856
				c1.693-5.623,3.385-11.246,5.083-16.888c1.004,0.254,1.941,0.491,3.008,0.76c-1.771,5.918-3.542,11.846-5.364,17.935
				c4.461-4.43,8.773-8.713,13.07-12.982c0.815,0.747,1.532,1.404,2.354,2.158c-5.289,5.307-10.615,10.652-16.056,16.112
				c2.335,1.013,4.493,1.952,6.654,2.888c9.115,3.948,18.235,7.89,27.344,11.859c0.694,0.303,1.137,0.33,1.756-0.255
				c1.937-1.835,4.889-2.064,7.142-0.682c2.194,1.346,3.271,4.057,2.623,6.608c-0.627,2.479-2.934,4.329-5.556,4.457
				c-3.257,0.16-6.12-2.518-6.143-5.827c-0.004-0.758-0.224-1.124-0.923-1.423C74.6,64.178,64.649,59.862,54.69,55.558
				c-0.24-0.104-0.49-0.189-0.736-0.283C53.911,55.325,53.869,55.375,53.827,55.427z M94.252,69.764
				c0.012-1.613-1.264-2.92-2.854-2.926c-1.499-0.003-2.827,1.313-2.868,2.842c-0.042,1.565,1.271,2.874,2.892,2.882
				C93.002,72.572,94.24,71.348,94.252,69.764z M39.1,5.98c0.02,1.648,1.263,2.859,2.906,2.829c1.568-0.029,2.84-1.31,2.819-2.843
				c-0.021-1.608-1.314-2.854-2.938-2.828C40.298,3.163,39.082,4.402,39.1,5.98z M3.12,66.251c-0.007,1.672,1.217,2.912,2.861,2.898
				c1.571-0.014,2.873-1.305,2.857-2.834c-0.017-1.569-1.284-2.836-2.851-2.851C4.389,63.45,3.127,64.676,3.12,66.251z"/>
			<path fill-rule="evenodd" clip-rule="evenodd" fill="#00A69A" d="M66.895,71.313c2.389,0.012,4.304,1.939,4.309,4.337
				c0.008,2.416-1.982,4.378-4.409,4.35c-2.406-0.027-4.289-1.939-4.281-4.35C62.52,73.176,64.415,71.301,66.895,71.313z"/>
			<path fill-rule="evenodd" clip-rule="evenodd" fill="#00A69A" d="M29.6,31.814c0.044,2.44-1.896,4.452-4.301,4.46
				c-2.356,0.007-4.36-1.946-4.399-4.291c-0.042-2.418,1.89-4.389,4.334-4.425C27.644,27.524,29.557,29.386,29.6,31.814z"/>
			<path fill-rule="evenodd" clip-rule="evenodd" fill="#00A69A" d="M62.307,20.507c-0.026,2.483-1.927,4.334-4.416,4.305
				c-2.381-0.028-4.311-1.994-4.286-4.37c0.024-2.383,2.11-4.415,4.458-4.345C60.467,16.169,62.331,18.105,62.307,20.507z"/>
			<path fill-rule="evenodd" clip-rule="evenodd" fill="#00A69A" d="M71.377,32.87c-2.382-0.017-4.313-1.963-4.313-4.345
				c0-2.408,1.988-4.357,4.425-4.336c2.395,0.021,4.301,1.951,4.293,4.349C75.776,30.99,73.847,32.889,71.377,32.87z"/>
			<path fill-rule="evenodd" clip-rule="evenodd" fill="#00A69A" d="M94.252,69.764c-0.012,1.583-1.25,2.808-2.83,2.799
				c-1.621-0.009-2.934-1.317-2.892-2.882c0.041-1.53,1.369-2.846,2.868-2.842C92.988,66.844,94.264,68.151,94.252,69.764z"/>
			<path fill-rule="evenodd" clip-rule="evenodd" fill="#00A69A" d="M39.1,5.98c-0.018-1.579,1.198-2.817,2.788-2.842
				c1.623-0.025,2.917,1.22,2.938,2.828c0.021,1.533-1.251,2.814-2.819,2.843C40.362,8.84,39.119,7.628,39.1,5.98z"/>
			<path fill-rule="evenodd" clip-rule="evenodd" fill="#00A69A" d="M3.12,66.251c0.007-1.576,1.269-2.801,2.868-2.787
				c1.566,0.015,2.834,1.282,2.851,2.851c0.016,1.53-1.286,2.821-2.857,2.834C4.337,69.163,3.113,67.923,3.12,66.251z"/>
		</g>
	</g>
</g>
<g id="menu" display="none">
</g>
<g id="Layer_4" display="none">
</g>
</svg>
