<?xml version="1.0" encoding="utf-8"?>
<!-- Generator: Adobe Illustrator 16.0.0, SVG Export Plug-In . SVG Version: 6.00 Build 0)  -->
<!DOCTYPE svg PUBLIC "-//W3C//DTD SVG 1.1//EN" "http://www.w3.org/Graphics/SVG/1.1/DTD/svg11.dtd">
<svg version="1.1" id="Layer_1" xmlns="http://www.w3.org/2000/svg" xmlns:xlink="http://www.w3.org/1999/xlink" x="0px" y="0px"
	 width="102px" height="112px" viewBox="0 0 102 112" enable-background="new 0 0 102 112" xml:space="preserve">
<g>
	<path fill="#E8F0C7" d="M51.357,90.32c-2.76,0-5.325-1.049-7.223-2.954c-0.199-0.2-0.295-0.251-0.639-0.251
		c-10.625,0.014-21.238,0.015-31.856,0.016l-7.751,0.003c-0.426,0-0.832-0.18-1.119-0.493c-0.287-0.314-0.429-0.735-0.39-1.159
		l4.332-47.577c0.071-0.781,0.725-1.378,1.509-1.378H9.8c0.008-0.085,0.016-0.17,0.024-0.254c0.11-1.127,0.219-2.236,0.287-3.349
		l0.008-0.125c0.075-1.14,0.176-2.701,2.571-2.701l0.408,0.003c0.083,0.001,0.167,0.002,0.249,0.003l0.46-4.849
		c0.073-0.779,0.727-1.374,1.509-1.374c0.742,0,1.477-0.014,2.205-0.028c0.734-0.014,1.461-0.027,2.184-0.027
		c1.045,0,1.91,0.029,2.722,0.09c5.115,0.382,9.738,1.229,14.133,2.588c5.451,1.687,9.6,3.807,13.058,6.675
		c0.619,0.512,1.194,1.062,1.75,1.602c0.005-0.005,0.01-0.009,0.015-0.014c0.834-0.763,1.696-1.552,2.631-2.272
		c3.717-2.876,8.165-4.947,13.993-6.516c5.745-1.547,11.816-2.299,18.556-2.299l0.262,0c0.156,0,0.313,0.013,0.517,0.035l0.22,0.021
		c0.729,0.065,1.306,0.642,1.373,1.37l0.464,5.027c0.193-0.001,0.385-0.008,0.576-0.031c0.137-0.016,0.267-0.024,0.386-0.024
		c0.774,0,2.099,0.312,2.258,2.396c0.1,1.321,0.208,2.64,0.32,4h1.585c0.783,0,1.438,0.597,1.51,1.378l4.336,47.623
		c0.038,0.424-0.104,0.845-0.391,1.159c-0.287,0.313-0.692,0.493-1.119,0.493h-13.5c-8.693,0-17.385-0.001-26.078-0.013l0,0
		c-0.36,0-0.463,0.053-0.657,0.246C56.7,89.27,54.12,90.32,51.357,90.32z M43.481,84.085c1.14,0,2.025,0.362,2.801,1.142
		c1.324,1.33,3.126,2.063,5.074,2.063c1.958,0,3.779-0.738,5.128-2.078c0.772-0.769,1.658-1.126,2.784-1.126
		c8.706,0.012,17.396,0.013,26.088,0.013h11.841l-4.06-44.592H91.54c-0.789,0-1.446-0.606-1.511-1.392l-0.112-1.37
		c-0.1-1.216-0.197-2.401-0.288-3.583c-0.332,0.008-0.664-0.001-0.999-0.01c-0.206-0.006-0.412-0.012-0.618-0.012
		c-0.783,0-1.438-0.596-1.51-1.376l-0.464-5.051c-6.262,0.038-11.908,0.757-17.245,2.193c-5.428,1.46-9.536,3.363-12.928,5.988
		c-0.835,0.644-1.613,1.356-2.438,2.11c-0.361,0.331-0.723,0.662-1.089,0.986c-0.587,0.52-1.474,0.507-2.045-0.031
		c-0.286-0.27-0.565-0.542-0.845-0.813c-0.6-0.584-1.166-1.136-1.766-1.631c-3.144-2.607-6.962-4.549-12.021-6.114
		c-4.174-1.291-8.579-2.096-13.465-2.461c-0.735-0.055-1.527-0.081-2.495-0.081c-0.704,0-1.413,0.013-2.127,0.027
		c-0.292,0.005-0.586,0.011-0.882,0.016l-0.461,4.862c-0.075,0.778-0.728,1.371-1.509,1.371l-0.999,0.002
		c-0.2,0-0.396-0.001-0.591-0.004c-0.069,1.136-0.181,2.276-0.293,3.435c-0.052,0.532-0.104,1.068-0.153,1.611
		c-0.071,0.782-0.725,1.38-1.51,1.38H9.604L5.549,84.102l6.09-0.001C22.256,84.1,32.868,84.099,43.481,84.085z"/>
	<path fill-rule="evenodd" clip-rule="evenodd" fill="#E8F0C7" d="M49.748,80.861c0.024-0.359,0.042-0.518,0.042-0.68
		c0-13.146,0.008-26.291-0.014-39.437c0-0.352-0.164-0.763-0.375-1.048c-1.456-1.911-3.289-3.411-5.323-4.646
		c-7.74-4.7-16.314-6.272-25.211-6.531c-0.228-0.004-0.65,0.339-0.678,0.552c-0.305,3.074-0.557,6.151-0.83,9.228
		c-0.221,2.52-0.448,5.042-0.676,7.563c-0.297,3.206-0.602,6.412-0.902,9.617c-0.318,3.404-0.634,6.804-0.939,10.211
		c-0.118,1.292-0.186,2.589-0.283,3.944c6.38,0.12,12.463,1.185,18.395,3.067C38.883,74.585,44.438,77.294,49.748,80.861z"/>
	<path fill-rule="evenodd" clip-rule="evenodd" fill="#E8F0C7" d="M84.483,28.377c-2.259,0.187-4.381,0.331-6.512,0.549
		c-4.941,0.503-9.746,1.627-14.336,3.559c-3.569,1.502-6.881,3.419-9.538,6.308c-0.556,0.605-1.168,1.157-1.164,2.163
		c0.028,12.984,0.02,25.967,0.02,38.951c0,0.273,0.04,0.545,0.068,0.928c10.72-7.111,22.392-10.832,35.207-11.229
		C86.982,55.863,85.745,42.222,84.483,28.377z"/>
	<path fill-rule="evenodd" clip-rule="evenodd" fill="#E8F0C7" d="M10.965,75.979c10.127,0.641,20.046,1.725,29.944,3.538
		c-5.971-3.953-23.068-7.739-29.647-6.568C11.17,73.908,11.077,74.881,10.965,75.979z"/>
	<path fill-rule="evenodd" clip-rule="evenodd" fill="#E8F0C7" d="M37.647,82.302c-9.901-1.68-19.861-2.948-29.937-3.163
		c-0.098,1.158-0.186,2.128-0.273,3.163C17.586,82.302,27.617,82.302,37.647,82.302z"/>
	<path fill-rule="evenodd" clip-rule="evenodd" fill="#E8F0C7" d="M91.771,75.983c-0.1-1.099-0.193-2.097-0.285-3.069
		c-7.814-0.853-25.31,3.058-29.514,6.578C71.787,77.702,81.664,76.62,91.771,75.983z"/>
	<path fill-rule="evenodd" clip-rule="evenodd" fill="#E8F0C7" d="M95.036,79.271c-3.639-0.584-26.309,1.977-29.968,3.032
		c10.067,0,20.087,0,30.241,0C95.218,81.244,95.124,80.25,95.036,79.271z"/>
</g>
</svg>
