<?xml version="1.0" encoding="utf-8"?>
<!-- Generator: Adobe Illustrator 16.0.0, SVG Export Plug-In . SVG Version: 6.00 Build 0)  -->
<!DOCTYPE svg PUBLIC "-//W3C//DTD SVG 1.1//EN" "http://www.w3.org/Graphics/SVG/1.1/DTD/svg11.dtd">
<svg version="1.1" xmlns="http://www.w3.org/2000/svg" xmlns:xlink="http://www.w3.org/1999/xlink" x="0px" y="0px" width="102px"
	 height="112px" viewBox="0 0 102 112" enable-background="new 0 0 102 112" xml:space="preserve">
<g id="Layer_3">
</g>
<g id="Layer_1">
	<g>
		<path fill="#E8F0C7" d="M50.771,53.508c-5.211,0-10.095-1.695-14.519-5.039c-4.58-3.463-7.554-7.939-8.838-13.302
			c-2.151-8.981,0.044-16.864,6.526-23.428c3.245-3.287,7.334-5.471,12.154-6.492c0.682-0.144,1.326-0.217,1.95-0.287
			c0.245-0.028,0.49-0.055,0.734-0.087l0.489-0.123l3.523,0.027l0.828,0.116c0.664,0.09,1.327,0.182,1.984,0.309
			C61.034,6.25,65.66,8.903,69.349,13.09c3.102,3.519,5.023,7.618,5.711,12.185c1.041,6.92-0.568,13.202-4.782,18.672
			c-3.722,4.831-8.583,7.875-14.447,9.047C54.125,53.335,52.421,53.508,50.771,53.508z M49.878,9.75
			c-0.129,0.03-0.246,0.053-0.364,0.068c-0.299,0.041-0.604,0.076-0.91,0.11c-0.529,0.06-1.03,0.116-1.475,0.21
			c-3.845,0.814-7.086,2.535-9.631,5.113c-5.26,5.327-6.968,11.46-5.222,18.75c1.008,4.207,3.36,7.733,6.992,10.479
			c4.676,3.535,9.907,4.747,15.584,3.61c4.646-0.928,8.503-3.349,11.466-7.195c3.351-4.35,4.629-9.354,3.798-14.876
			c-0.542-3.6-2.063-6.838-4.518-9.624c-2.982-3.384-6.562-5.439-10.943-6.285c-0.567-0.109-1.139-0.186-1.711-0.264
			c-0.234-0.032-0.467-0.063-0.701-0.097H49.878z"/>
		<path fill-rule="evenodd" clip-rule="evenodd" fill="#E8F0C7" d="M48.025,107.248c-0.179,0-0.297,0-0.415,0
			c-9.147-0.002-18.296,0.012-27.443-0.012c-5.324-0.014-10.269-4.208-11.2-9.455c-0.127-0.715-0.215-1.448-0.216-2.173
			c-0.014-10.763-0.035-21.526,0.001-32.29c0.017-5.117,3.248-9.452,8.1-11.07c1.252-0.417,2.542-0.599,3.856-0.602
			c2.857-0.006,5.714,0.007,8.57-0.012c0.396-0.002,0.553,0.132,0.671,0.494c4.628,14.134,9.267,28.265,13.903,42.396
			c1.337,4.072,2.672,8.144,4.007,12.217C47.908,106.883,47.954,107.027,48.025,107.248z"/>
		<path fill-rule="evenodd" clip-rule="evenodd" fill="#E8F0C7" d="M54.13,107.224c0.539-1.664,1.056-3.274,1.579-4.882
			c5.44-16.72,10.884-33.439,16.315-50.163c0.131-0.403,0.297-0.549,0.737-0.546c2.856,0.023,5.713,0.002,8.57,0.014
			c5.7,0.023,10.344,3.702,11.629,9.256c0.208,0.9,0.28,1.85,0.281,2.776c0.019,10.526-0.022,21.052,0.026,31.578
			c0.025,5.662-3.851,10.584-9.392,11.727c-0.662,0.136-1.344,0.243-2.018,0.245c-9.132,0.017-18.263,0.012-27.395,0.013
			C54.38,107.241,54.295,107.233,54.13,107.224z M76.967,85.53c-0.663,0-1.326,0-1.988,0c-1.801,0-3.602-0.01-5.402,0.004
			c-1.222,0.009-1.992,0.909-1.753,2.012c0.183,0.845,0.834,1.289,1.928,1.29c4.756,0.003,9.513,0.002,14.269,0
			c0.22,0,0.444-0.014,0.659-0.057c0.765-0.153,1.358-0.924,1.323-1.7c-0.042-0.92-0.757-1.544-1.799-1.546
			C81.791,85.526,79.379,85.53,76.967,85.53z"/>
		<path fill-rule="evenodd" clip-rule="evenodd" fill="#E8F0C7" d="M50.989,96.17c-0.325-0.978-0.609-1.818-0.884-2.661
			c-3.217-9.853-6.431-19.707-9.659-29.556c-0.113-0.346-0.066-0.527,0.215-0.763c3.369-2.831,6.726-5.678,10.086-8.52
			c0.075-0.064,0.154-0.125,0.257-0.208c1.323,1.116,2.633,2.219,3.942,3.325c2.129,1.798,4.252,3.604,6.391,5.39
			c0.282,0.235,0.32,0.425,0.207,0.77c-3.452,10.525-6.889,21.054-10.329,31.582C51.16,95.698,51.098,95.864,50.989,96.17z"/>
	</g>
</g>
<g id="menu">
</g>
<g id="Layer_4" display="none">
</g>
</svg>
