<?xml version="1.0" encoding="utf-8"?>
<!-- Generator: Adobe Illustrator 16.0.0, SVG Export Plug-In . SVG Version: 6.00 Build 0)  -->
<!DOCTYPE svg PUBLIC "-//W3C//DTD SVG 1.1//EN" "http://www.w3.org/Graphics/SVG/1.1/DTD/svg11.dtd">
<svg version="1.1" xmlns="http://www.w3.org/2000/svg" xmlns:xlink="http://www.w3.org/1999/xlink" x="0px" y="0px" width="102px"
	 height="112px" viewBox="0 0 102 112" enable-background="new 0 0 102 112" xml:space="preserve">
<g id="Layer_3">
</g>
<g id="Layer_1">
	<g>
		<path fill="#E8F0C7" d="M6.368,5.475c0,0-4.614,31.06,18.815,74.545c0,0,7.632,11.772,0,17.422c0,0-3.019,2.99-9.765,6.005
			c0,0-2.482,0.534-3.018,2.486c0,0,23.43,4.26,51.651-10.117c0,0,10.826-6.922,15.265-11.003c0,0,6.743-5.503,16.683-3.906
			c0,0-2.376-8.866-14.145-4.611C81.855,76.297,51.272,98.237,6.368,5.475z"/>
		<path fill="#E8F0C7" d="M75.484,74.66l-1.032-0.087c-0.224-0.019-5.498-0.48-10.03-2.067c-6.653-1.798-13.289-8.435-13.569-8.718
			l-1.642-1.656l1.537-1.753c6.6-7.523,9.098-10.43,10.922-12.552l0.494-0.575c2.635-3.32,12.275-14.502,27.8-21.87l3.624-1.72
			l-0.052,4.011c-0.018,1.311-0.606,32.256-17.26,46.319L75.484,74.66z M56.116,61.841c2.171,1.885,6.064,4.906,9.68,5.856
			l0.2,0.062c2.854,1.013,6.191,1.516,7.843,1.719c10.862-9.948,13.707-29.107,14.443-37.618
			C75.92,38.672,68.253,47.617,66.053,50.396l-0.591,0.69C63.787,53.034,61.546,55.642,56.116,61.841z"/>
	</g>
</g>
<g id="menu">
</g>
<g id="Layer_4" display="none">
</g>
</svg>
