<?xml version="1.0" encoding="utf-8"?>
<!-- Generator: Adobe Illustrator 16.0.0, SVG Export Plug-In . SVG Version: 6.00 Build 0)  -->
<!DOCTYPE svg PUBLIC "-//W3C//DTD SVG 1.1//EN" "http://www.w3.org/Graphics/SVG/1.1/DTD/svg11.dtd">
<svg version="1.1" xmlns="http://www.w3.org/2000/svg" xmlns:xlink="http://www.w3.org/1999/xlink" x="0px" y="0px"
	 width="247.232px" height="66.192px" viewBox="0 0 247.232 66.192" enable-background="new 0 0 247.232 66.192"
	 xml:space="preserve">
<g id="Layer_3">
</g>
<g id="Layer_1">
</g>
<g id="Layer_5">
	<g>
		<g>
			<g opacity="0.41">
				
					<image overflow="visible" width="1219" height="476" xlink:href="BC12E194.png"  transform="matrix(0.24 0 0 0.24 -31.8628 -20.562)">
				</image>
			</g>
			
				<linearGradient id="SVGID_2_" gradientUnits="userSpaceOnUse" x1="9.9146" y1="21.6133" x2="257.0908" y2="21.6133" gradientTransform="matrix(0.9999 -0.0053 0.0053 0.9999 -10.058 6.2822)">
				<stop  offset="0" style="stop-color:#94CC00"/>
				<stop  offset="0.6559" style="stop-color:#96CE00"/>
				<stop  offset="0.9216" style="stop-color:#9BD500"/>
				<stop  offset="1" style="stop-color:#9ED900"/>
			</linearGradient>
			<polygon fill="url(#SVGID_2_)" points="247.232,48.139 0.084,49.437 -0.139,6.231 247.006,4.934 			"/>
			
				<linearGradient id="SVGID_3_" gradientUnits="userSpaceOnUse" x1="9.9146" y1="21.6074" x2="45.3579" y2="21.6074" gradientTransform="matrix(0.9999 -0.0053 0.0053 0.9999 -10.058 6.2822)">
				<stop  offset="0" style="stop-color:#FFFFFF"/>
				<stop  offset="1" style="stop-color:#000000"/>
			</linearGradient>
			<polygon opacity="0.1" fill="url(#SVGID_3_)" points="35.521,49.25 0.084,49.437 -0.139,6.231 35.295,6.044 			"/>
		</g>
		<g>
			<g>
				<path fill="#FFFFFF" d="M57.54,31.406c-0.203,2.609-0.547,4.578-1.031,5.906l-1.922-0.586c0.609-1.734,1-3.555,1.172-5.461
					L57.54,31.406z M63.376,19.594c-1.547,3.703-3.188,6.539-4.922,8.508c1.297-0.063,2.148-0.18,2.555-0.352
					c-0.125-0.375-0.352-0.961-0.68-1.758l1.641-0.469c0.594,1.219,1.102,2.656,1.523,4.313l-1.898,0.539
					c-0.031-0.109-0.063-0.25-0.094-0.422c-0.047-0.266-0.078-0.398-0.094-0.398c-1.219,0.219-3.258,0.469-6.117,0.75l-0.563-2.063
					h0.727c0.281-0.016,0.469-0.023,0.563-0.023c1.25-1.438,2.258-2.898,3.023-4.383c-1.922,0.172-3.258,0.266-4.008,0.281
					l-0.352-1.945c0.125,0.016,0.258,0.023,0.398,0.023s0.25-0.008,0.328-0.023c0.172-0.016,0.32-0.023,0.445-0.023
					c1.297-2.313,2.25-4.492,2.859-6.539l2.18,0.563c-0.797,2.047-1.766,4.023-2.906,5.93c0.688,0,1.32-0.047,1.898-0.141
					c0.391-0.656,0.852-1.68,1.383-3.07L63.376,19.594z M58.22,36.703c0.047-0.797,0.07-1.586,0.07-2.367
					c0-0.984-0.063-2-0.188-3.047l1.711-0.117c0.328,1.656,0.492,3.469,0.492,5.438L58.22,36.703z M61.665,36.094
					c-0.328-2.203-0.688-3.891-1.078-5.063l1.594-0.305c0.563,1.453,1,3.07,1.313,4.852L61.665,36.094z M65.743,37.477h-2.039
					V16.359H76.22v18.047c0,1.063-0.156,1.781-0.469,2.156c-0.297,0.391-0.93,0.586-1.898,0.586h-2.297l-0.656-2.18l2.461,0.117
					c0.563,0,0.844-0.25,0.844-0.75v-5.648h-4.992v2.203c0,0.734,0.297,1.102,0.891,1.102h3.188v1.781h-3.281
					c-1,0-1.703-0.188-2.109-0.563c-0.391-0.391-0.586-1.125-0.586-2.203v-2.32h-1.547L65.743,37.477z M65.743,22.383h1.805
					c-0.344-1.172-0.734-2.227-1.172-3.164l1.922-0.328c0.391,0.984,0.773,2.148,1.148,3.492h1.008
					c0.391-0.891,0.719-2.07,0.984-3.539l1.969,0.398c-0.281,1.359-0.602,2.406-0.961,3.141h1.734v-4.219h-8.438V22.383z
					 M65.743,26.883h3.492c-0.328-0.781-0.672-1.461-1.031-2.039l1.875-0.375c0.281,0.391,0.695,1.195,1.242,2.414h2.859v-2.695
					h-8.438V26.883z"/>
				<path fill="#FFFFFF" d="M92.27,34.641V15.398h2.625v7.242h9.492v2.25h-9.492v9.75h10.57v2.25H83.363v-2.25H92.27z"/>
				<path fill="#FFFFFF" d="M122.476,21.68v1.805h-1.148c-0.281,1.297-0.578,2.391-0.891,3.281h2.156v1.828h-3.844v2.508h3.633
					v1.781h-3.633v4.594h-2.18v-4.594h-3.914v-1.781h3.914v-2.508h-4.336v-1.828h2.531c-0.36-1.281-0.633-2.375-0.82-3.281h-1.664
					V21.68h4.289v-2.203h-3.727v-1.828h3.727v-2.25h2.18v2.25h3.586v1.828h-3.586v2.203H122.476z M119.289,23.484h-3.352
					c0.296,1.453,0.554,2.547,0.773,3.281h1.711C118.843,25.656,119.132,24.563,119.289,23.484z M125.429,18.188v4.922h8.039
					c-0.454,3.75-1.204,6.836-2.25,9.258c0,0.344,1.016,1.328,3.047,2.953l-1.195,2.156c-1.016-1-2.008-2.063-2.977-3.188
					c-0.609,0.969-1.641,2.008-3.094,3.117l-1.336-1.875c1.453-0.797,2.492-1.797,3.117-3c-1.406-2.328-2.266-4.781-2.578-7.359
					h-0.773v12.305h-2.063V16.289h10.031c-0.079,2.906-0.196,4.539-0.352,4.898c-0.156,0.344-0.469,0.578-0.938,0.703
					c-0.469,0.141-1.258,0.211-2.367,0.211c-0.391,0-0.735-0.008-1.031-0.023l-0.68-1.805c1.156,0.063,1.89,0.094,2.203,0.094
					c0.469,0,0.75-0.102,0.844-0.305c0.094-0.219,0.141-0.727,0.141-1.523c0-0.141,0-0.258,0-0.352H125.429z M128.101,25.172
					c0.343,2.156,0.929,3.93,1.758,5.32c0.734-1.578,1.187-3.352,1.359-5.32H128.101z"/>
				<path fill="#FFFFFF" d="M143.096,23.719l-1.5-1.852c4.031-1.734,6.969-3.891,8.813-6.469l2.344,0.492
					c-0.313,0.484-0.68,0.969-1.102,1.453h9.164v1.641c-1.579,3.125-4.711,5.805-9.398,8.039h10.453v10.453h-2.391V36h-10.547v1.477
					h-2.367v-8.109c-1.281,0.516-2.813,0.969-4.594,1.359l-0.961-2.32c3.5-0.469,6.594-1.5,9.281-3.094
					c-0.641-0.703-1.688-1.641-3.141-2.813l1.781-1.242c1.187,0.828,2.359,1.773,3.516,2.836c2.625-1.531,4.477-3.102,5.555-4.711
					h-8.25C147.924,21.055,145.706,22.5,143.096,23.719z M159.479,29.063h-10.547v4.852h10.547V29.063z"/>
			</g>
		</g>
	</g>
</g>
<g id="menu" display="none">
</g>
<g id="Layer_4" display="none">
</g>
</svg>
