<?xml version="1.0" encoding="utf-8"?>
<!-- Generator: Adobe Illustrator 16.0.0, SVG Export Plug-In . SVG Version: 6.00 Build 0)  -->
<!DOCTYPE svg PUBLIC "-//W3C//DTD SVG 1.1//EN" "http://www.w3.org/Graphics/SVG/1.1/DTD/svg11.dtd">
<svg version="1.1" xmlns="http://www.w3.org/2000/svg" xmlns:xlink="http://www.w3.org/1999/xlink" x="0px" y="0px" width="20px"
	 height="21px" viewBox="0 0 20 21" enable-background="new 0 0 20 21" xml:space="preserve">
<g id="Layer_3">
</g>
<g id="Layer_1">
</g>
<g id="menu">
	<g>
		<path fill="#FFFFFF" d="M9.955,9.752c-1.043,0-2.02-0.339-2.904-1.008C6.135,8.051,5.54,7.156,5.283,6.083
			c-0.43-1.796,0.009-3.373,1.306-4.686C7.237,0.74,8.056,0.303,9.02,0.099c0.128-0.027,0.259-0.042,0.389-0.057L9.714,0
			l0.811,0.029c0.133,0.018,0.266,0.037,0.397,0.062c1.085,0.209,2.011,0.74,2.748,1.577c0.621,0.704,1.006,1.524,1.143,2.438
			c0.208,1.384-0.113,2.641-0.957,3.734c-0.743,0.966-1.715,1.575-2.889,1.81C10.626,9.717,10.285,9.752,9.955,9.752z M9.771,1
			L9.521,1.036C9.422,1.047,9.323,1.057,9.227,1.078C8.457,1.24,7.81,1.584,7.3,2.1C6.248,3.166,5.906,4.393,6.256,5.85
			c0.201,0.842,0.672,1.547,1.398,2.096c0.936,0.707,1.979,0.947,3.117,0.722c0.929-0.186,1.7-0.67,2.292-1.439
			c0.671-0.87,0.927-1.871,0.761-2.976c-0.108-0.72-0.413-1.368-0.904-1.925c-0.588-0.667-1.324-1.09-2.188-1.256
			C10.618,1.05,10.504,1.035,10.39,1.02l-0.178-0.025L9.771,1z"/>
		<path fill="#FFFFFF" d="M6.435,21l-2.602-0.003c-1.303-0.003-2.503-1.015-2.731-2.303c-0.03-0.172-0.051-0.348-0.051-0.522
			L1.05,17.637c-0.003-1.975-0.005-3.95,0.001-5.925c0.005-1.236,0.774-2.291,1.962-2.687C3.301,8.929,3.613,8.88,3.941,8.879
			l1.712-0.002c0.295,0,0.522,0.166,0.612,0.444l3.798,11.577L9.405,21L6.435,21z M4.356,9.879l-0.413,0
			c-0.222,0-0.428,0.032-0.614,0.094c-0.773,0.258-1.275,0.942-1.278,1.742c-0.006,1.973-0.004,3.947-0.001,5.92l0.001,0.535
			c0,0.116,0.015,0.234,0.035,0.348c0.145,0.813,0.93,1.476,1.749,1.478L6.435,20l2.281,0L5.396,9.877L4.356,9.879z"/>
		<path fill="#FFFFFF" d="M12.68,20.998h-2.673l0.247-0.975l3.476-10.691c0.095-0.29,0.321-0.455,0.621-0.455l0.989,0.002l0.29,0
			l0.439,0.001c1.373,0.005,2.502,0.905,2.811,2.238c0.045,0.195,0.068,0.413,0.069,0.666l0.001,2.569
			c-0.001,1.249-0.002,2.498,0.004,3.747c0.006,1.371-0.952,2.564-2.278,2.837c-0.122,0.025-0.308,0.059-0.504,0.059L12.68,20.998z
			 M11.313,19.997l1.366,0.001l3.491-0.002c0.105,0,0.224-0.022,0.303-0.039c0.862-0.178,1.484-0.957,1.48-1.854
			c-0.006-1.25-0.005-2.501-0.004-3.751l-0.001-2.565c-0.001-0.175-0.016-0.321-0.044-0.443c-0.205-0.886-0.927-1.461-1.84-1.464
			L15.63,9.878l-0.58,0l-0.446-0.001L11.313,19.997z M14.957,17.317l-1.207,0c-0.541,0-0.807-0.337-0.874-0.653
			c-0.054-0.247,0.004-0.499,0.157-0.69c0.158-0.199,0.406-0.314,0.679-0.316l0.777-0.001l2.153,0.001
			c0.478,0.001,0.839,0.333,0.858,0.789c0.018,0.398-0.275,0.772-0.666,0.851c-0.078,0.015-0.155,0.021-0.23,0.021L14.957,17.317z"
			/>
		<path fill="#FFFFFF" d="M9.974,19.809l-2.56-7.813c-0.086-0.266-0.017-0.51,0.194-0.689l2.341-1.977l0.373,0.229l2.066,1.742
			c0.211,0.178,0.282,0.43,0.196,0.693L9.974,19.809z M8.439,11.914l1.56,4.771l1.561-4.773l-1.559-1.314L8.439,11.914z"/>
	</g>
</g>
<g id="Layer_4" display="none">
</g>
</svg>
