<?xml version="1.0" encoding="utf-8"?>
<!-- Generator: Adobe Illustrator 16.0.0, SVG Export Plug-In . SVG Version: 6.00 Build 0)  -->
<!DOCTYPE svg PUBLIC "-//W3C//DTD SVG 1.1//EN" "http://www.w3.org/Graphics/SVG/1.1/DTD/svg11.dtd">
<svg version="1.1" xmlns="http://www.w3.org/2000/svg" xmlns:xlink="http://www.w3.org/1999/xlink" x="0px" y="0px"
	 width="204.967px" height="190.704px" viewBox="0 0 204.967 190.704" enable-background="new 0 0 204.967 190.704"
	 xml:space="preserve">
<g id="Layer_3">
</g>
<g id="Layer_1">
</g>
<g id="menu">
	<g opacity="0.3">
		<g>
			<path fill="#FFFFFF" d="M49.245,153.332c-2.51,2.399-4.971,4.808-8.142,7.362c-10.122,8.171-21.535,14.242-33.488,19.163
				c-2.954,1.231-10.133,3.16-6.711,7.735c1.682,2.204,5.363,2.895,7.929,3.036c20.838,1.179,36.889-11.535,52.877-23.261
				c0.917-0.662,1.68-1.263,2.426-1.85C58.784,161.498,53.348,156.907,49.245,153.332z"/>
		</g>
		<path fill="#FFFFFF" d="M98.078,23.291c4.131,10.032,0.503,21.115-8.146,24.758c-8.63,3.64-18.998-1.526-23.156-11.541
			c-4.146-10.018-0.54-21.109,8.122-24.739C83.545,8.105,93.909,13.26,98.078,23.291z"/>
		<g>
			<path fill="#FFFFFF" d="M198.334,110.769c-13.784-7.576-30.046-8.742-45.462-8.414c-5.754,0.12-11.496,0.525-17.23,0.929
				c-7.739,0.562-17.903,0.989-22.818-6.33c-7.512-11.186,5.617-20.375,12.766-26.506c10.128-8.7,19.448-18.645,28.088-28.81
				c6.271-7.381,11.603-15.812,14.797-24.994c0.58-1.654,6.133-16.264,2.11-16.63c-3.606-0.339-7.683,5.543-9.721,7.871
				c-3.535,4.037-6.827,8.296-10.641,12.084C132.916,37.191,111.344,49.222,87.28,53.7c-20.543,3.826-36.392,2.148-58.188,16.755
				c-3.97,2.645-7.854,5.628-10.54,9.641c-6.859,10.257,12.574,3.094,15.561,2.113c14.666-4.771,40.867-6.506,41.549,17.609
				c0.242,8.362-1.45,15.772-3.649,23.813c-1.457,5.299-19.954,25.138-22.767,29.7c4.663,3.987,9.555,8.349,14.891,12.186
				c6.288-4.848,29.722-24.202,36.502-28.422c16.203-10.083,34.296-14.69,53.288-16.889c10.433-1.202,26.322-0.532,36.448,2.15
				c3.563,0.929,13.304,3.881,14.519-2.099C205.611,116.709,200.977,112.22,198.334,110.769z"/>
		</g>
	</g>
</g>
<g id="Layer_4" display="none">
</g>
</svg>
