<?xml version="1.0" encoding="utf-8"?>
<!-- Generator: Adobe Illustrator 16.0.0, SVG Export Plug-In . SVG Version: 6.00 Build 0)  -->
<!DOCTYPE svg PUBLIC "-//W3C//DTD SVG 1.1//EN" "http://www.w3.org/Graphics/SVG/1.1/DTD/svg11.dtd">
<svg version="1.1" xmlns="http://www.w3.org/2000/svg" xmlns:xlink="http://www.w3.org/1999/xlink" x="0px" y="0px" width="20px"
	 height="21px" viewBox="0 0 20 21" enable-background="new 0 0 20 21" xml:space="preserve">
<g id="Layer_3">
</g>
<g id="Layer_1">
</g>
<g id="menu">
	<g>
		<path fill="#FFFFFF" d="M4.326,21c-1.066,0-1.703-0.113-1.729-0.119L2.089,20.79l0.136-0.498c0.149-0.545,0.679-0.738,0.865-0.79
			c1.129-0.51,1.65-1.01,1.655-1.015c1.104-0.823-0.054-2.652-0.066-2.67C0.245,7.59,1.047,1.762,1.084,1.518L1.31,0l0.669,1.382
			c5.655,11.685,9.976,13.43,12.048,13.43c0.896,0,1.38-0.325,1.4-0.338l0.11-0.058c0.449-0.162,0.871-0.245,1.254-0.245
			c1.291,0,1.883,0.937,2.016,1.432l0.189,0.706l-0.722-0.116c-1.62-0.26-2.744,0.625-2.754,0.633
			c-0.83,0.764-2.819,2.039-2.903,2.093C9.237,20.643,6.246,21,4.326,21z M4.113,20.051c1.763,0.018,4.734-0.272,8.034-1.953h-0.001
			c-0.004,0,1.967-1.264,2.756-1.99c0.061-0.05,0.975-0.783,2.397-0.896c-0.313-0.13-0.81-0.126-1.39,0.076
			c-0.205,0.128-0.85,0.47-1.884,0.47c-2.659,0-6.858-2.181-12.054-12.267c0.087,2.302,0.692,6.593,3.521,11.843
			c0.559,0.859,1.278,2.824-0.136,3.871c0,0,0,0,0,0C5.364,19.205,4.96,19.593,4.113,20.051z"/>
		<path fill="#FFFFFF" d="M14.318,15.31l-0.195-0.017c-0.042-0.003-1.046-0.091-1.899-0.394c-1.218-0.318-2.475-1.576-2.527-1.629
			l-0.311-0.314l0.292-0.332c1.22-1.391,1.692-1.941,2.032-2.336l0.112-0.131c0.475-0.599,2.29-2.708,5.207-4.093l0.687-0.325
			l-0.01,0.759c-0.004,0.246-0.115,6.048-3.237,8.685L14.318,15.31z M10.693,12.901c0.408,0.354,1.134,0.916,1.809,1.094
			c0.562,0.197,1.193,0.294,1.505,0.333c2.029-1.86,2.564-5.438,2.704-7.037c-2.309,1.274-3.745,2.948-4.159,3.469l-0.123,0.145
			C12.117,11.267,11.696,11.758,10.693,12.901z"/>
	</g>
</g>
<g id="Layer_4" display="none">
</g>
</svg>
