<?xml version="1.0" encoding="utf-8"?>
<!-- Generator: Adobe Illustrator 16.0.0, SVG Export Plug-In . SVG Version: 6.00 Build 0)  -->
<!DOCTYPE svg PUBLIC "-//W3C//DTD SVG 1.1//EN" "http://www.w3.org/Graphics/SVG/1.1/DTD/svg11.dtd">
<svg version="1.1" xmlns="http://www.w3.org/2000/svg" xmlns:xlink="http://www.w3.org/1999/xlink" x="0px" y="0px" width="20px"
	 height="21px" viewBox="0 0 20 21" enable-background="new 0 0 20 21" xml:space="preserve">
<g id="Layer_3">
</g>
<g id="Layer_1">
</g>
<g id="menu">
	<g>
		<path fill="#FFFFFF" d="M13.29,21.01l-0.056-0.011l-1.351-0.032c-0.198-0.022-0.483-0.09-0.767-0.183
			c-0.48-0.158-0.95-0.377-1.435-0.673c-0.529-0.323-1.043-0.715-1.575-1.198c-0.396-0.36-0.792-0.763-1.209-1.232
			c-0.471-0.532-0.942-1.123-1.442-1.807c-0.389-0.535-0.758-1.083-1.126-1.632c-0.187-0.281-0.354-0.572-0.505-0.873
			c-0.268-0.532-0.501-1.115-0.715-1.781c-0.165-0.513-0.308-1.044-0.424-1.578c-0.064-0.298-0.123-0.596-0.18-0.894
			C2.461,8.864,2.423,8.614,2.383,8.364C2.354,8.182,2.331,7.999,2.308,7.817L2.191,6.696c-0.016-0.186-0.03-0.37-0.04-0.556
			C2.136,5.876,2.12,5.612,2.109,5.347L2.08,4.253L2.092,4.18c0.023-0.345,0.067-0.633,0.138-0.908
			c0.188-0.743,0.563-1.377,1.111-1.888c0.374-0.346,0.805-0.623,1.32-0.846c0.377-0.163,0.791-0.29,1.23-0.38
			C6.113,0.113,6.335,0.08,6.561,0.056L7.263,0.01l0.133,0.472l0.188,6.132L7.24,6.804C7.117,6.861,7.003,6.933,6.901,7.017
			C6.689,7.193,6.564,7.415,6.518,7.694C6.483,7.895,6.495,8.113,6.552,8.359c0.027,0.122,0.067,0.233,0.121,0.342
			c0.659,1.301,1.325,2.599,2.016,3.884c0.287,0.534,0.579,1.065,0.886,1.589c0.157,0.271,0.317,0.541,0.501,0.795
			c0.1,0.14,0.213,0.242,0.342,0.31c0.085,0.045,0.176,0.075,0.271,0.087c0.192,0.025,0.381,0.001,0.596-0.071
			c0.132-0.043,0.249-0.096,0.36-0.161l0.294-0.171l5.386,4.234l-0.54,0.388c-0.45,0.289-0.866,0.505-1.336,0.705
			c-0.658,0.281-1.355,0.511-2.071,0.685L13.29,21.01z M12.129,20l1.038,0c0.637-0.156,1.281-0.369,1.889-0.628
			c0.193-0.082,0.375-0.167,0.549-0.255l-3.77-2.962c-0.076,0.032-0.153,0.062-0.235,0.09c-0.36,0.119-0.693,0.159-1.041,0.113
			c-0.216-0.028-0.421-0.094-0.611-0.196c-0.264-0.14-0.492-0.345-0.683-0.608c-0.202-0.281-0.38-0.577-0.554-0.875
			c-0.313-0.533-0.609-1.075-0.902-1.62c-0.694-1.292-1.365-2.597-2.026-3.906C5.69,8.971,5.622,8.78,5.578,8.582
			C5.492,8.208,5.477,7.863,5.532,7.529c0.087-0.517,0.333-0.948,0.729-1.28c0.095-0.078,0.195-0.15,0.303-0.215L6.419,1.081
			C6.31,1.096,6.2,1.115,6.093,1.137C5.719,1.213,5.371,1.32,5.058,1.456C4.647,1.633,4.31,1.849,4.021,2.116
			c-0.41,0.382-0.68,0.841-0.822,1.401c-0.055,0.214-0.089,0.44-0.103,0.671L3.079,4.734L3.105,5.3
			c0.013,0.262,0.027,0.521,0.042,0.781c0.012,0.177,0.023,0.353,0.038,0.528L3.3,7.694c0.021,0.17,0.045,0.344,0.07,0.517
			c0.037,0.242,0.076,0.482,0.119,0.723C3.543,9.221,3.602,9.511,3.663,9.8c0.108,0.501,0.243,1.001,0.397,1.483
			c0.198,0.616,0.413,1.152,0.658,1.638c0.132,0.265,0.279,0.521,0.443,0.767c0.358,0.538,0.722,1.075,1.102,1.598
			c0.48,0.658,0.934,1.225,1.383,1.732c0.393,0.441,0.764,0.82,1.133,1.156c0.485,0.44,0.95,0.795,1.424,1.084
			c0.418,0.254,0.817,0.443,1.223,0.576c0.224,0.072,0.45,0.128,0.683,0.162L12.129,20z"/>
		<path fill="#FFFFFF" d="M17.329,19.523l-0.505-0.169c-0.171-0.066-4.86-3.821-4.892-3.853l-0.444-0.436l0.521-0.339l0.297,0.395
			l0.001-0.001l-0.182-0.461l1.256-0.663l0.169-0.021c0.299-0.007,0.562,0.087,0.711,0.154c0.158,0.071,0.311,0.162,0.466,0.279
			l0.203,0.154c0.327,0.245,0.653,0.49,0.975,0.739c0.497,0.384,0.99,0.773,1.481,1.163c0.247,0.195,0.414,0.442,0.496,0.736
			l0.037,0.421l-0.018,0.065c-0.036,0.136-0.052,0.195-0.069,0.252L17.329,19.523z M13.185,15.23c0.9,0.716,2.666,2.115,3.564,2.823
			l0.168-0.581c-0.036-0.112-0.081-0.171-0.15-0.225c-0.488-0.386-0.979-0.774-1.472-1.156c-0.319-0.247-0.642-0.489-0.964-0.731
			l-0.205-0.154c-0.096-0.071-0.184-0.125-0.272-0.165c-0.078-0.035-0.14-0.055-0.19-0.064L13.185,15.23z"/>
		<path fill="#FFFFFF" d="M7.752,6.733L7.646,6.728C7.331,6.692,7.11,6.474,7.072,6.158C7.059,6.064,7.047,5.964,7.041,5.864
			c-0.028-0.471-0.046-0.946-0.059-1.42L6.907,0.209l0.587-0.193l0.27,0.01c0.257,0.042,0.472,0.112,0.698,0.221
			c0.228,0.11,0.416,0.229,0.576,0.361c0.132,0.11,0.236,0.224,0.316,0.348c0.098,0.148,0.146,0.312,0.148,0.486l0.06,4.048
			L9.125,6.052C8.99,6.208,8.824,6.341,8.617,6.456c-0.144,0.079-0.36,0.189-0.615,0.248C7.908,6.724,7.829,6.733,7.752,6.733z
			 M7.919,1.098L7.981,4.42c0.011,0.404,0.023,0.811,0.047,1.216C8.062,5.62,8.097,5.602,8.133,5.582
			C8.233,5.526,8.311,5.466,8.368,5.4l0.189-0.223L8.504,1.453C8.486,1.469,8.453,1.421,8.401,1.378
			c-0.1-0.083-0.221-0.158-0.375-0.232C7.99,1.128,7.954,1.112,7.919,1.098z"/>
	</g>
</g>
<g id="Layer_4" display="none">
</g>
</svg>
