<?xml version="1.0" encoding="utf-8"?>
<!-- Generator: Adobe Illustrator 16.0.0, SVG Export Plug-In . SVG Version: 6.00 Build 0)  -->
<!DOCTYPE svg PUBLIC "-//W3C//DTD SVG 1.1//EN" "http://www.w3.org/Graphics/SVG/1.1/DTD/svg11.dtd">
<svg version="1.1" xmlns="http://www.w3.org/2000/svg" xmlns:xlink="http://www.w3.org/1999/xlink" x="0px" y="0px" width="20px"
	 height="21px" viewBox="0 0 20 21" enable-background="new 0 0 20 21" xml:space="preserve">
<g id="Layer_3">
</g>
<g id="Layer_1">
</g>
<g id="menu">
	<g>
		<path fill="#FFFFFF" d="M10.87,15.024c-0.213,0-0.434-0.013-0.654-0.027l-0.194-0.007l-0.317,0.004l-0.923-0.013
			c-0.179,0-0.356,0.004-0.534,0.02c-0.851,0.071-1.364-0.403-1.445-1.238c-0.13-1.33,0.192-2.477,0.96-3.406
			C8.501,9.459,9.37,8.78,10.419,8.281c0.751-0.357,1.159-0.646,1.304-1.233c0.089-0.364,0.017-0.623-0.252-0.893
			c-0.784-0.787-2.483-0.813-3.278-0.044C7.739,6.551,7.319,7.042,6.93,7.509c-0.494,0.592-1.15,0.673-1.77,0.205
			c-0.491-0.371-0.979-0.746-1.469-1.12L2.827,5.931C2.498,5.68,2.022,5.129,2.528,4.255C4.043,1.63,6.871,0,9.909,0
			c2.131,0,4.172,0.797,5.748,2.246c2.027,1.862,2.604,4.613,1.473,7.009c-0.564,1.191-1.571,1.906-2.482,2.449l-0.188,0.11
			c-0.65,0.383-1.212,0.714-1.503,1.332l-0.075,0.128C12.73,15.024,11.334,15.024,10.87,15.024z M10.021,13.99
			c0.071,0,0.144,0.002,0.215,0.006c1.102,0.069,1.596,0.122,1.654-0.874c0.01-0.186,0.104-0.32,0.153-0.393
			c0.431-0.906,1.216-1.369,1.909-1.777l0.183-0.108c0.821-0.489,1.643-1.072,2.09-2.018c0.941-1.991,0.453-4.285-1.244-5.845
			C13.59,1.704,11.788,1,9.909,1C7.187,1,4.751,2.404,3.394,4.755c-0.141,0.244-0.105,0.27,0.04,0.381L4.301,5.8
			c0.486,0.373,0.973,0.746,1.462,1.116C5.888,7.01,5.952,7.017,5.969,7.017c0.033,0,0.102-0.039,0.193-0.149
			C6.57,6.38,7.009,5.866,7.497,5.393c0.571-0.554,1.41-0.872,2.299-0.872c0.928,0,1.797,0.339,2.384,0.929
			c0.514,0.517,0.687,1.135,0.514,1.837c-0.284,1.155-1.261,1.62-1.845,1.897c-0.914,0.434-1.671,1.025-2.315,1.808
			c-0.601,0.728-0.841,1.602-0.735,2.673c0.032,0.343,0.156,0.378,0.287,0.343c0.282-0.021,0.489-0.027,0.696-0.027l0.923,0.013
			L10.021,13.99z"/>
		<path fill="#FFFFFF" d="M9.674,21c-0.553,0-1.105-0.001-1.659-0.006c-0.747-0.005-1.217-0.48-1.227-1.239
			c-0.005-0.415-0.004-0.829-0.003-1.243l0.001-0.997l-0.001-1.204c-0.002-0.41,0.113-0.735,0.344-0.967
			c0.229-0.229,0.549-0.346,0.951-0.346L11.522,15c0.778,0.003,1.262,0.493,1.262,1.278v3.44c0,0.785-0.483,1.274-1.263,1.277
			L9.674,21z M8.081,15.999c-0.142,0-0.218,0.027-0.243,0.052c-0.024,0.025-0.054,0.107-0.053,0.256l0.001,1.691l-0.001,0.517
			c-0.001,0.41-0.002,0.819,0.003,1.229c0.003,0.238,0.063,0.25,0.234,0.251C8.573,19.999,9.124,20,9.674,20l1.845-0.004
			c0.216,0,0.266-0.026,0.266-0.278v-3.427c0-0.264-0.051-0.29-0.266-0.291l-2.163-0.002L8.081,15.999z"/>
	</g>
</g>
<g id="Layer_4" display="none">
</g>
</svg>
