<?xml version="1.0" encoding="utf-8"?>
<!-- Generator: Adobe Illustrator 16.0.0, SVG Export Plug-In . SVG Version: 6.00 Build 0)  -->
<!DOCTYPE svg PUBLIC "-//W3C//DTD SVG 1.1//EN" "http://www.w3.org/Graphics/SVG/1.1/DTD/svg11.dtd">
<svg version="1.1" xmlns="http://www.w3.org/2000/svg" xmlns:xlink="http://www.w3.org/1999/xlink" x="0px" y="0px" width="20px"
	 height="21px" viewBox="0 0 20 21" enable-background="new 0 0 20 21" xml:space="preserve">
<g id="Layer_3">
</g>
<g id="Layer_1">
</g>
<g id="menu">
	<g>
		<path fill="#FFFFFF" d="M8.596,20.132c-0.28,0-0.556-0.081-0.82-0.24c-0.363-0.219-0.615-0.558-0.729-0.946
			c-0.511,0.289-1.007,0.307-1.575-0.055c-0.602-0.384-0.827-0.827-0.838-1.34c-0.47,0.116-0.946,0.014-1.382-0.303
			c-0.489-0.355-0.753-0.822-0.782-1.358c-0.021,0.006-0.043,0.013-0.065,0.018c-0.927,0.228-1.974-0.514-2.104-1.468
			c-0.086-0.629,0.042-1.148,0.393-1.586c0.144-0.178,0.271-0.368,0.401-0.556c0.087-0.128,0.175-0.256,0.266-0.382
			c-0.219-0.289-0.425-0.566-0.632-0.844l-0.564-0.754c-0.231-0.305-0.173-0.59-0.084-0.776c0.105-0.218,0.205-0.438,0.311-0.67
			l0.46-1.009L2.628,10.2c0.106,0.137,0.212,0.275,0.313,0.415c0.171-0.012,0.335-0.015,0.497-0.006
			c0.869,0.051,1.483,0.708,1.563,1.675c0.011,0.117,0.019,0.263,0.005,0.419l0.076,0.008c0.95,0,1.72,0.724,1.805,1.691
			c0.045,0.029,0.085,0.06,0.12,0.089c1.085-0.098,1.722,0.764,1.84,1.56c0.114,0.061,0.29,0.189,0.466,0.316
			c0.357,0.094,0.789,0.268,0.986,0.764c0.184,0.149,0.317,0.257,0.459,0.356c0.132,0.093,0.275,0.072,0.348-0.035l-2.028-1.608
			c-0.431-0.34-0.528-0.903-0.225-1.309c0.284-0.381,0.947-0.456,1.355-0.158l0.91,0.662c0.809,0.587,1.615,1.173,2.407,1.782
			c0.146,0.113,0.382,0.078,0.431,0.009c0.139-0.189,0.111-0.416-0.067-0.551c-0.568-0.436-1.142-0.866-1.715-1.296l-1.942-1.459
			c-0.404-0.305-0.51-0.947-0.221-1.347c0.282-0.385,0.936-0.461,1.338-0.164l4.309,3.174c0.241,0.177,0.424-0.004,0.461-0.201
			c0.027-0.152-0.004-0.232-0.13-0.327c-1.201-0.903-2.397-1.814-3.595-2.724l-1.129-0.857c-0.222-0.168-0.371-0.426-0.409-0.704
			c-0.034-0.253,0.026-0.497,0.171-0.686c0.289-0.38,0.952-0.432,1.379-0.114l4.943,3.666c0.255,0.19,0.48,0.084,0.588-0.071
			c0.204-0.299,0.169-0.611-0.099-0.854l-7.195-6.543c-0.208-0.188-0.85-0.188-1.144,0.02C9.239,5.977,9.107,6.17,9.059,6.439
			C8.795,7.925,7.663,9.03,6.176,9.255C5.522,9.351,4.901,9.11,4.453,8.604c-0.336-0.382-0.384-0.889-0.13-1.357
			C4.56,6.811,4.678,6.36,4.676,5.908C4.671,5.193,4.802,4.545,5.073,3.95H2.501l0.438-0.945C3.093,2.673,3.24,2.356,3.395,2.043
			c0.071-0.145,0.236-0.314,0.612-0.317l1.401-0.001c0.753,0,1.505,0,2.257-0.005c0.041,0,0.097-0.015,0.14-0.037
			c0.758-0.386,1.451-0.712,2.253-0.793c0.409-0.041,0.825-0.018,1.243,0.008l0.322,0.019c0.569,0.028,1.081,0.196,1.577,0.358
			c0.273,0.089,0.546,0.179,0.826,0.241l0.165,0.037c0.559,0.124,1.083,0.24,1.607,0.202c0.004,0,0.008,0,0.011,0
			c0.211,0,0.49,0.06,0.634,0.427l2.579,5.57c0.287,0.62,0.573,1.241,0.864,1.859c0.119,0.253,0.121,0.498,0.009,0.749
			c-0.068,0.153-0.132,0.307-0.196,0.462c-0.063,0.152-0.127,0.304-0.192,0.455c0.6,0.899,0.652,1.857,0.156,2.782
			c-0.327,0.609-0.859,0.983-1.623,1.14c-0.057,0.577-0.286,1.047-0.694,1.429c-0.401,0.377-0.883,0.567-1.466,0.58
			c-0.169,0.717-0.62,1.233-1.324,1.505c-0.644,0.249-1.34,0.109-1.858-0.151c-0.398,0.576-1.059,0.927-1.798,0.927
			c-0.307,0-0.602-0.062-0.871-0.182c-0.077,0.094-0.155,0.187-0.239,0.273C9.435,19.941,9.021,20.132,8.596,20.132z M7.69,18.127
			l0.274,0.079c-0.103,0.356,0.016,0.697,0.303,0.871c0.294,0.178,0.561,0.124,0.841-0.164c0.104-0.105,0.194-0.224,0.285-0.342
			l0.436-0.54l0.365,0.275c0.201,0.15,0.444,0.23,0.705,0.23c0.528,0,0.983-0.313,1.16-0.798l0.203-0.559l0.502,0.321
			c0.624,0.401,1.019,0.487,1.446,0.323c0.499-0.192,0.748-0.556,0.786-1.144l0.032-0.499l0.497,0.057
			c0.487,0.055,0.869-0.025,1.168-0.306c0.301-0.282,0.426-0.63,0.405-1.13l-0.018-0.453l0.451-0.041l0.158,0.464l-0.06-0.473
			c0.616-0.078,0.973-0.286,1.192-0.693c0.343-0.639,0.297-1.229-0.146-1.855c-0.178-0.25-0.202-0.508-0.075-0.787
			c0.075-0.167,0.146-0.338,0.218-0.509c0.066-0.162,0.135-0.324,0.205-0.484c-0.293-0.575-0.58-1.198-0.867-1.821l-2.52-5.437
			c-0.555,0-1.125-0.115-1.652-0.232l-0.165-0.036c-0.311-0.068-0.614-0.167-0.917-0.266c-0.456-0.149-0.887-0.29-1.327-0.311
			l-0.336-0.02c-0.363-0.022-0.727-0.047-1.087-0.011c-0.64,0.065-1.223,0.341-1.918,0.695C8.061,2.622,7.858,2.672,7.67,2.673
			C6.916,2.677,6.163,2.677,5.408,2.677L4.145,2.679C4.094,2.784,4.044,2.89,3.994,2.998h2.832L6.287,3.751
			C5.832,4.386,5.622,5.07,5.628,5.903C5.631,6.517,5.474,7.122,5.16,7.701C5.072,7.864,5.134,7.935,5.168,7.973
			c0.233,0.264,0.544,0.387,0.865,0.34C7.109,8.15,7.93,7.349,8.121,6.271C8.214,5.754,8.484,5.344,8.95,5.015
			c0.652-0.46,1.793-0.439,2.334,0.053l7.195,6.543c0.62,0.563,0.718,1.406,0.244,2.098c-0.401,0.583-1.336,0.746-1.902,0.326
			l-3.792-2.812c1.176,0.895,2.352,1.789,3.533,2.677c0.411,0.31,0.586,0.758,0.492,1.262c-0.121,0.65-0.578,1.07-1.165,1.07
			c-0.275,0-0.55-0.095-0.795-0.275l-2.06-1.516c0.479,0.359,0.957,0.72,1.434,1.083c0.586,0.448,0.698,1.27,0.257,1.872
			c-0.372,0.507-1.234,0.602-1.779,0.183c-0.748-0.576-1.512-1.131-2.275-1.685l1.15,0.911c0.293,0.229,0.308,0.515,0.269,0.714
			c-0.115,0.58-0.592,0.984-1.16,0.984c-0.254,0-0.503-0.081-0.722-0.236c-0.165-0.117-0.322-0.244-0.48-0.371
			c-0.141-0.112-0.252-0.227-0.306-0.388c-0.02-0.063-0.044-0.138-0.317-0.214c-0.093-0.026-0.225-0.063-0.347-0.151
			c-0.127-0.091-0.254-0.184-0.377-0.28l-0.385,1.243L7.65,18.083L7.69,18.127z M6.122,15.602L5.73,16.81
			c-0.288,0.887-0.13,1.033,0.253,1.278c0.176,0.112,0.265,0.125,0.317,0.125c0.181,0,0.473-0.191,0.919-0.6l0.981-0.898
			c-0.009-0.007-0.016-0.013-0.023-0.02c-0.143-0.123-0.244-0.311-0.271-0.503C7.9,16.159,7.74,15.333,7.01,15.451L6.122,15.602z
			 M3.992,14.143L3.538,15.26c-0.281,0.693-0.02,1.005,0.273,1.218c0.379,0.274,0.692,0.216,1.158-0.179l0.984-0.833l0.237-0.386
			c-0.225-0.222-0.243-0.466-0.252-0.572c-0.033-0.49-0.395-0.844-0.856-0.844l-0.117,0.003c-0.308,0-0.546-0.113-0.727-0.344
			c-0.086-0.11-0.246-0.315-0.188-0.648c0.017-0.098,0.009-0.225,0.001-0.311c-0.02-0.231-0.122-0.771-0.671-0.804l-0.14-0.004
			c-0.099,0-0.198,0.006-0.297,0.016l-0.101,0.005c-0.258,0-0.472-0.112-0.619-0.325c-0.112-0.158-0.231-0.314-0.352-0.47
			L1.055,9.706C1.034,9.75,1.014,9.794,0.993,9.837l0.498,0.667c0.23,0.31,0.461,0.62,0.696,0.926c0.305,0.4,0.175,0.737,0.013,0.95
			c-0.111,0.147-0.217,0.301-0.322,0.455c-0.142,0.208-0.285,0.417-0.443,0.614c-0.185,0.232-0.243,0.49-0.192,0.861
			c0.056,0.398,0.557,0.764,0.93,0.673c0.145-0.036,0.299-0.117,0.462-0.203c0.088-0.046,0.177-0.092,0.264-0.132L3.992,14.143z"/>
	</g>
</g>
<g id="Layer_4" display="none">
</g>
</svg>
