<?xml version="1.0" encoding="utf-8"?>
<!-- Generator: Adobe Illustrator 16.0.0, SVG Export Plug-In . SVG Version: 6.00 Build 0)  -->
<!DOCTYPE svg PUBLIC "-//W3C//DTD SVG 1.1//EN" "http://www.w3.org/Graphics/SVG/1.1/DTD/svg11.dtd">
<svg version="1.1" xmlns="http://www.w3.org/2000/svg" xmlns:xlink="http://www.w3.org/1999/xlink" x="0px" y="0px"
	 width="26.194px" height="26.194px" viewBox="0 0 26.194 26.194" enable-background="new 0 0 26.194 26.194" xml:space="preserve">
<g id="Layer_3">
</g>
<g id="Layer_1">
</g>
<g id="Layer_5">
	<g>
		<path fill="#232434" d="M26.194,13.1c0,7.233-5.862,13.094-13.095,13.094C5.865,26.194,0,20.333,0,13.1C0,5.865,5.865,0,13.099,0
			C20.332,0,26.194,5.865,26.194,13.1z"/>
		<g>
			<path fill="#FFFFFF" d="M6.346,3.879C5.306,4.638,2.242,8.601,6.943,16.736c4.957,8.571,10.274,7.825,11.375,7.138l-3.356-5.609
				c-0.92,0.549-1.609-0.196-2.871-1.833c-0.837-1.082-1.739-2.498-2.42-4.04c-0.467-1.08-0.842-2.19,0.12-2.765L6.346,3.879z"/>
			<path fill="#FFFFFF" d="M21.352,22.075c0.423-0.257,0.548-0.731,0.35-1.065l0.003-0.005c0,0-2.621-4.374-2.623-4.375
				c-0.206-0.344-0.696-0.42-1.098-0.183l-1.859,1.114l3.363,5.622c0,0,1.857-1.099,1.854-1.104L21.352,22.075z"/>
			<path fill="#FFFFFF" d="M12.821,7.812c0.426-0.253,0.553-0.727,0.354-1.06l0.005-0.003c0,0-2.695-4.5-2.697-4.506
				C10.276,1.9,9.786,1.823,9.384,2.063L7.525,3.177l3.435,5.747l1.857-1.104L12.821,7.812z"/>
		</g>
	</g>
</g>
<g id="menu" display="none">
</g>
<g id="Layer_4" display="none">
</g>
</svg>
