<?xml version="1.0" encoding="utf-8"?>
<!-- Generator: Adobe Illustrator 16.0.0, SVG Export Plug-In . SVG Version: 6.00 Build 0)  -->
<!DOCTYPE svg PUBLIC "-//W3C//DTD SVG 1.1//EN" "http://www.w3.org/Graphics/SVG/1.1/DTD/svg11.dtd">
<svg version="1.1" xmlns="http://www.w3.org/2000/svg" xmlns:xlink="http://www.w3.org/1999/xlink" x="0px" y="0px"
	 width="101.354px" height="111.691px" viewBox="0 0 101.354 111.691" enable-background="new 0 0 101.354 111.691"
	 xml:space="preserve">
<g id="Layer_3">
</g>
<g id="Layer_1">
	<g>
		<path fill="#E8F0C7" d="M88.417,27.915c-1.194,0-2.166-0.99-2.166-2.208c0-5.31-4.008-9.629-8.935-9.629
			c-1.194,0-2.166-0.987-2.166-2.201c0-1.215,0.972-2.204,2.166-2.204c2.629,0,8.935-2.771,8.935-9.627
			c0-1.213,0.972-2.201,2.166-2.201c1.193,0,2.163,0.987,2.163,2.201c0,5.308,4.007,9.627,8.932,9.627
			c1.194,0,2.165,0.989,2.165,2.204c0,1.213-0.971,2.201-2.165,2.201c-4.925,0-8.932,4.319-8.932,9.629
			C90.581,26.925,89.61,27.915,88.417,27.915z M81.292,13.788c3.243,1.212,5.848,3.865,7.125,7.227
			c1.246-3.283,3.759-5.889,6.895-7.139c-3.135-1.249-5.647-3.853-6.894-7.134C87.005,10.345,84.062,12.637,81.292,13.788z"/>
		<path fill="#E8F0C7" d="M25.082,92.033c-1.12,1.065-2.22,2.141-3.634,3.276c-4.515,3.635-9.61,6.331-14.944,8.521
			c-1.321,0.545-4.521,1.403-2.993,3.439c0.747,0.979,2.392,1.287,3.541,1.35c9.296,0.524,16.461-5.128,23.592-10.343
			c0.411-0.293,0.753-0.564,1.089-0.822C29.337,95.665,26.912,93.622,25.082,92.033"/>
		<path fill="#E8F0C7" d="M32.684,87.955C11.248,69.889-2.577,47.086,4.56,36.19c-0.194,0.157-0.389,0.3-0.583,0.449
			c-11.611,9.687,1.536,36.254,24.609,55.719c21.03,17.729,45.192,25.002,53.454,14.889
			C72.011,112.598,51.529,103.815,32.684,87.955"/>
		<path fill="#E8F0C7" d="M58.312,51.483c-1.744-1.473-3.503-2.873-5.275-4.211l-3.545,3.575c1.699,1.302,3.395,2.663,5.078,4.084
			c21.426,18.093,35.186,40.885,27.984,51.7c0.19-0.146,0.39-0.281,0.58-0.431C94.822,96.585,81.372,70.987,58.312,51.483"/>
		<path fill="#E8F0C7" d="M5.167,35.521c7.645-4.024,21.295,0.088,35.655,9.244l3.465-3.49C27.61,30.995,11.665,27.673,5.167,35.521
			"/>
		<path fill="#E8F0C7" d="M46.876,34.205c1.846,4.461,0.228,9.39-3.634,11.011c-3.854,1.619-8.479-0.68-10.336-5.133
			c-1.847-4.455-0.238-9.384,3.623-11.001C40.39,27.452,45.019,29.746,46.876,34.205"/>
		<path fill="#E8F0C7" d="M91.617,73.107c-6.149-3.369-13.407-3.888-20.289-3.741c-2.565,0.05-5.126,0.231-7.688,0.413
			c-3.456,0.25-7.988,0.438-10.186-2.814c-3.351-4.975,2.507-9.06,5.702-11.789c4.521-3.868,8.678-8.29,12.534-12.811
			c2.799-3.284,5.178-7.03,6.601-11.115c0.259-0.736,2.74-7.232,0.941-7.396c-1.607-0.149-3.426,2.464-4.336,3.5
			c-1.576,1.794-3.05,3.688-4.749,5.374c-7.728,7.659-17.356,13.008-28.092,14.999c-9.167,1.703-16.239,0.956-25.969,7.451
			c-1.77,1.176-3.503,2.503-4.7,4.289c-3.064,4.559,5.609,1.376,6.94,0.939c6.548-2.123,18.236-2.895,18.541,7.831
			c0.112,3.717-0.645,7.013-1.625,10.588c-0.649,2.358-1.658,4.533-2.914,6.561c2.085,1.775,4.615,3.846,6.996,5.551
			c2.807-2.155,5.665-4.248,8.692-6.124c7.234-4.487,15.308-6.533,23.781-7.51c4.657-0.538,11.75-0.238,16.265,0.955
			c1.592,0.414,5.942,1.727,6.482-0.933C94.867,75.749,92.798,73.752,91.617,73.107"/>
	</g>
</g>
<g id="menu">
</g>
<g id="Layer_4" display="none">
</g>
</svg>
