<?xml version="1.0" encoding="utf-8"?>
<!-- Generator: Adobe Illustrator 16.0.0, SVG Export Plug-In . SVG Version: 6.00 Build 0)  -->
<!DOCTYPE svg PUBLIC "-//W3C//DTD SVG 1.1//EN" "http://www.w3.org/Graphics/SVG/1.1/DTD/svg11.dtd">
<svg version="1.1" xmlns="http://www.w3.org/2000/svg" xmlns:xlink="http://www.w3.org/1999/xlink" x="0px" y="0px" width="102px"
	 height="112px" viewBox="0 0 102 112" enable-background="new 0 0 102 112" xml:space="preserve">
<g id="Layer_3">
</g>
<g id="Layer_1">
	<g>
		<path fill-rule="evenodd" clip-rule="evenodd" fill="#E8F0C7" d="M49.503,74.917c-2.525,0-5.07-0.173-7.575,0.044
			c-3.058,0.264-4.32-1.438-4.566-3.982c-0.553-5.627,0.552-10.833,4.28-15.35c3.472-4.214,7.624-7.459,12.556-9.804
			c3.541-1.684,6.885-3.575,7.95-7.903c0.681-2.771-0.021-4.968-1.934-6.894c-5.1-5.127-14.883-5.312-20.101-0.254
			c-2.338,2.261-4.468,4.751-6.56,7.25c-1.696,2.034-3.481,2.145-5.474,0.638c-3.945-2.976-7.852-6.001-11.776-8.995
			c-1.929-1.472-2.081-3.067-0.854-5.193c12.937-22.407,43.324-27.082,62.41-9.55c9.355,8.596,12.072,21.428,6.859,32.455
			c-2.45,5.178-6.8,8.453-11.544,11.279c-3.709,2.209-7.565,4.204-9.528,8.381c-0.177,0.377-0.563,0.725-0.582,1.102
			c-0.443,7.548-5.76,7.112-11.036,6.784C51.189,74.87,50.351,74.917,49.503,74.917z"/>
		<path fill="#E8F0C7" d="M49.421,107.75c-2.816,0-5.632-0.008-8.449-0.029c-3.757-0.026-6.121-2.414-6.17-6.233
			c-0.024-2.09-0.02-4.179-0.015-6.267l0.007-5.045c0.002-2.025,0.004-4.05-0.007-6.076c-0.011-2.063,0.57-3.7,1.729-4.865
			c1.148-1.155,2.757-1.741,4.78-1.741l2.025,0.001l8.896-0.005c2.156,0,4.311,0.002,6.467,0.011
			c3.915,0.016,6.347,2.48,6.347,6.431c0.005,5.79,0.009,11.581,0,17.373c0,3.949-2.433,6.413-6.349,6.424
			C55.596,107.741,52.508,107.75,49.421,107.75z M41.304,82.494c-0.722,0-1.114,0.138-1.242,0.267
			c-0.136,0.136-0.278,0.553-0.274,1.313c0.011,2.037,0.009,4.072,0.007,6.107l-0.007,5.053c-0.005,2.064-0.01,4.129,0.015,6.193
			c0.015,1.187,0.307,1.288,1.206,1.294c5.89,0.044,11.769,0.03,17.658,0.008c1.09-0.003,1.366-0.144,1.366-1.428
			c0.009-5.792,0.005-11.579,0-17.367c0-1.288-0.276-1.429-1.366-1.433c-2.149-0.008-4.298-0.011-6.447-0.011l-8.896,0.005
			L41.304,82.494z"/>
	</g>
</g>
<g id="menu">
</g>
<g id="Layer_4" display="none">
</g>
</svg>
