<?xml version="1.0" encoding="utf-8"?>
<!-- Generator: Adobe Illustrator 16.0.0, SVG Export Plug-In . SVG Version: 6.00 Build 0)  -->
<!DOCTYPE svg PUBLIC "-//W3C//DTD SVG 1.1//EN" "http://www.w3.org/Graphics/SVG/1.1/DTD/svg11.dtd">
<svg version="1.1" xmlns="http://www.w3.org/2000/svg" xmlns:xlink="http://www.w3.org/1999/xlink" x="0px" y="0px" width="20px"
	 height="21px" viewBox="0 0 20 21" enable-background="new 0 0 20 21" xml:space="preserve">
<g id="Layer_3">
</g>
<g id="Layer_1">
</g>
<g id="menu">
	<g>
		<path fill="#FFFFFF" d="M2.727,20.999l-0.423-0.038c-0.735-0.205-1.316-0.588-1.73-1.141c-0.382-0.508-0.24-0.971-0.055-1.27
			c1.718-2.771,3.983-4.931,6.731-6.42c0.576-0.313,1.157-0.617,1.737-0.921c0.503-0.264,1.007-0.528,1.509-0.797
			c0.155-0.084,0.308-0.168,0.455-0.253c-0.523,0.227-1.049,0.447-1.575,0.667c-0.406,0.17-0.813,0.339-1.218,0.513
			c-2.004,0.856-3.59,1.865-4.85,3.084l-0.114,0.093l-0.473,0.346l-0.291-0.502c-0.528-1.071-0.754-2.154-0.67-3.22
			c0.198-2.525,1.395-4.468,3.555-5.777C6.627,4.571,8.069,4.161,9.18,3.893c0.544-0.13,1.089-0.254,1.634-0.378
			c0.78-0.178,1.561-0.354,2.335-0.554c1.299-0.332,2.313-0.838,3.104-1.547c0.215-0.193,0.413-0.405,0.616-0.621l0.77-0.795
			l0.437,0.752c1.217,2.262,1.738,4.662,1.555,7.138c-0.2,2.694-1.148,5.033-2.819,6.952c-1.243,1.429-2.827,2.385-4.846,2.922
			c-2.039,0.541-3.875,0.546-5.606,0.018c-0.383-0.117-0.751-0.276-1.105-0.428c-0.065-0.028-0.13-0.056-0.196-0.084
			c-0.901,0.936-1.507,2.122-2.146,3.372L2.727,20.999z M16.408,4.515l0.149,1.008l-0.088,0.27c-0.502,1.058-1.139,2.005-1.89,2.813
			c-0.924,0.993-2.073,1.841-3.619,2.672c-0.504,0.271-1.01,0.536-1.517,0.801c-0.576,0.303-1.153,0.605-1.726,0.915
			c-2.597,1.407-4.737,3.451-6.364,6.075l0.007,0.161c0.212,0.284,0.486,0.499,0.832,0.65c0.65-1.268,1.349-2.549,2.413-3.55
			l0.229-0.216l0.292,0.118c0.175,0.071,0.345,0.144,0.514,0.217c0.337,0.145,0.664,0.286,1.002,0.39
			c1.558,0.475,3.209,0.467,5.066-0.028c1.822-0.484,3.248-1.341,4.358-2.617c1.526-1.756,2.395-3.901,2.579-6.38
			c0.159-2.133-0.252-4.209-1.223-6.178c-0.168,0.177-0.337,0.349-0.516,0.509c-0.911,0.817-2.062,1.396-3.517,1.767
			c-0.783,0.201-1.571,0.381-2.36,0.56C10.491,4.597,9.949,4.72,9.41,4.85C8.369,5.101,7.021,5.481,5.825,6.206
			c-1.873,1.135-2.911,2.821-3.084,5.012c-0.055,0.7,0.046,1.392,0.309,2.099c1.3-1.141,2.84-2.079,4.722-2.883
			c0.407-0.174,0.817-0.345,1.226-0.516c0.75-0.314,1.501-0.627,2.242-0.961c1.977-0.888,3.397-2.104,4.341-3.72l0.143-0.162
			L16.408,4.515z"/>
		<path fill="#FFFFFF" d="M2.727,20.999l-0.423-0.038c-0.735-0.205-1.316-0.588-1.73-1.141c-0.382-0.508-0.24-0.971-0.055-1.27
			c1.718-2.771,3.983-4.931,6.731-6.42c0.576-0.313,1.157-0.617,1.737-0.921c0.503-0.264,1.007-0.528,1.509-0.797
			c0.155-0.084,0.308-0.168,0.455-0.253c-0.523,0.227-1.049,0.447-1.575,0.667c-0.406,0.17-0.813,0.339-1.218,0.513
			c-2.004,0.856-3.59,1.865-4.85,3.084l-0.114,0.093l-0.473,0.346l-0.291-0.502c-0.528-1.071-0.754-2.154-0.67-3.22
			c0.198-2.525,1.395-4.468,3.555-5.777C6.627,4.571,8.069,4.161,9.18,3.893c0.544-0.13,1.089-0.254,1.634-0.378
			c0.78-0.178,1.561-0.354,2.335-0.554c1.299-0.332,2.313-0.838,3.104-1.547c0.215-0.193,0.413-0.405,0.616-0.621l0.77-0.795
			l0.437,0.752c1.217,2.262,1.738,4.662,1.555,7.138c-0.2,2.694-1.148,5.033-2.819,6.952c-1.243,1.429-2.827,2.385-4.846,2.922
			c-2.039,0.541-3.875,0.546-5.606,0.018c-0.383-0.117-0.751-0.276-1.105-0.428c-0.065-0.028-0.13-0.056-0.196-0.084
			c-0.901,0.936-1.507,2.122-2.146,3.372L2.727,20.999z M16.408,4.515l0.149,1.008l-0.088,0.27c-0.502,1.058-1.139,2.005-1.89,2.813
			c-0.924,0.993-2.073,1.841-3.619,2.672c-0.504,0.271-1.01,0.536-1.517,0.801c-0.576,0.303-1.153,0.605-1.726,0.915
			c-2.597,1.407-4.737,3.451-6.364,6.075l0.007,0.161c0.212,0.284,0.486,0.499,0.832,0.65c0.65-1.268,1.349-2.549,2.413-3.55
			l0.229-0.216l0.292,0.118c0.175,0.071,0.345,0.144,0.514,0.217c0.337,0.145,0.664,0.286,1.002,0.39
			c1.558,0.475,3.209,0.467,5.066-0.028c1.822-0.484,3.248-1.341,4.358-2.617c1.526-1.756,2.395-3.901,2.579-6.38
			c0.159-2.133-0.252-4.209-1.223-6.178c-0.168,0.177-0.337,0.349-0.516,0.509c-0.911,0.817-2.062,1.396-3.517,1.767
			c-0.783,0.201-1.571,0.381-2.36,0.56C10.491,4.597,9.949,4.72,9.41,4.85C8.369,5.101,7.021,5.481,5.825,6.206
			c-1.873,1.135-2.911,2.821-3.084,5.012c-0.055,0.7,0.046,1.392,0.309,2.099c1.3-1.141,2.84-2.079,4.722-2.883
			c0.407-0.174,0.817-0.345,1.226-0.516c0.75-0.314,1.501-0.627,2.242-0.961c1.977-0.888,3.397-2.104,4.341-3.72l0.143-0.162
			L16.408,4.515z"/>
	</g>
</g>
<g id="Layer_4" display="none">
</g>
</svg>
