<?xml version="1.0" encoding="utf-8"?>
<!-- Generator: Adobe Illustrator 16.0.0, SVG Export Plug-In . SVG Version: 6.00 Build 0)  -->
<!DOCTYPE svg PUBLIC "-//W3C//DTD SVG 1.1//EN" "http://www.w3.org/Graphics/SVG/1.1/DTD/svg11.dtd">
<svg version="1.1" xmlns="http://www.w3.org/2000/svg" xmlns:xlink="http://www.w3.org/1999/xlink" x="0px" y="0px" width="20px"
	 height="21px" viewBox="0 0 20 21" enable-background="new 0 0 20 21" xml:space="preserve">
<g id="Layer_3">
</g>
<g id="Layer_1">
</g>
<g id="menu">
	<g>
		<path fill="#FFFFFF" d="M16.693,5.786c-0.341,0-0.618-0.281-0.618-0.627c0-0.835-0.621-1.515-1.384-1.515
			c-0.341,0-0.618-0.281-0.618-0.626c0-0.346,0.277-0.627,0.618-0.627c0.394,0,1.384-0.451,1.384-1.515
			c0-0.345,0.277-0.626,0.618-0.626s0.618,0.281,0.618,0.626c0,0.835,0.62,1.515,1.383,1.515c0.341,0,0.618,0.281,0.618,0.627
			c0,0.345-0.277,0.626-0.618,0.626c-0.763,0-1.383,0.68-1.383,1.515C17.312,5.505,17.034,5.786,16.693,5.786z M15.911,2.999
			c0.314,0.198,0.583,0.472,0.782,0.796c0.193-0.314,0.45-0.581,0.753-0.777c-0.307-0.199-0.566-0.47-0.76-0.789
			C16.479,2.55,16.206,2.808,15.911,2.999z"/>
		<g>
			<path fill="#FFFFFF" d="M2.235,20.672C2.234,20.672,2.234,20.672,2.235,20.672c-0.081,0-0.163-0.002-0.245-0.007
				c-0.319-0.017-0.755-0.108-1.009-0.44c-0.217-0.291-0.185-0.553-0.146-0.684c0.12-0.41,0.553-0.574,0.812-0.672
				c1.117-0.458,1.958-0.939,2.654-1.501c0.216-0.173,0.388-0.339,0.559-0.502l0.33-0.315l0.409,0.237
				c0.322,0.281,0.75,0.642,1.171,0.958l0.525,0.394l-0.921,0.702C5.152,19.741,3.889,20.672,2.235,20.672z M5.286,17.837
				c-0.116,0.107-0.23,0.207-0.357,0.309c-0.722,0.583-1.575,1.083-2.603,1.525c1.231-0.034,2.253-0.751,3.32-1.536
				C5.521,18.034,5.401,17.934,5.286,17.837z"/>
		</g>
		<g>
			<path fill="#FFFFFF" d="M6.642,16.426c-3.866-3.27-6.359-7.397-5.072-9.37C1.534,7.084,1.499,7.11,1.464,7.137
				c-2.094,1.753,0.277,6.562,4.438,10.085c3.793,3.209,8.15,4.525,9.641,2.695C13.734,20.886,10.04,19.296,6.642,16.426z"/>
		</g>
		<g>
			<path fill="#FFFFFF" d="M11.264,9.824c-0.314-0.267-0.632-0.52-0.951-0.762l-0.64,0.647c0.307,0.236,0.612,0.482,0.916,0.739
				c3.864,3.275,6.346,7.4,5.047,9.358c0.034-0.026,0.07-0.051,0.104-0.078C17.849,17.988,15.423,13.354,11.264,9.824z"/>
			<path fill="#FFFFFF" d="M1.679,6.935C3.058,6.207,5.52,6.951,8.109,8.608l0.625-0.632C5.727,6.116,2.851,5.515,1.679,6.935z"/>
		</g>
		<path fill="#FFFFFF" d="M8.08,9.284c-0.782,0-1.529-0.535-1.86-1.331C5.781,6.892,6.195,5.706,7.142,5.309
			c0.919-0.389,2.094,0.166,2.521,1.196c0.438,1.061,0.023,2.247-0.923,2.646C8.53,9.239,8.309,9.284,8.08,9.284z M7.805,6.175
			c-0.096,0-0.188,0.019-0.274,0.055C7.088,6.416,6.915,7.017,7.144,7.57c0.221,0.531,0.771,0.846,1.208,0.659
			c0.442-0.186,0.615-0.788,0.388-1.342C8.563,6.461,8.187,6.175,7.805,6.175z"/>
		<g>
			<path fill="#FFFFFF" d="M7.851,17.589l-0.303-0.217c-0.368-0.265-0.804-0.611-1.295-1.031l-0.325-0.278l0.225-0.365
				c0.217-0.351,0.37-0.696,0.469-1.057c0.188-0.687,0.293-1.196,0.275-1.769c-0.009-0.32-0.032-1.167-1.421-1.167
				c-0.395,0-0.857,0.077-1.269,0.21c-0.452,0.154-0.909,0.293-1.263,0.293c-0.433,0-0.616-0.222-0.687-0.355
				c-0.133-0.248-0.09-0.538,0.128-0.862c0.272-0.408,0.65-0.691,0.985-0.914c1.431-0.958,2.562-1.104,3.76-1.259
				C7.487,8.772,7.854,8.725,8.24,8.653c1.782-0.332,3.443-1.223,4.806-2.578c0.199-0.198,0.379-0.413,0.56-0.627l0.352-0.414
				c0.231-0.283,0.581-0.711,1.056-0.711c0.259,0.021,0.426,0.123,0.528,0.284c0.161,0.253,0.19,0.638-0.191,1.691
				c-0.269,0.773-0.7,1.503-1.292,2.2c-0.815,0.959-1.573,1.736-2.315,2.375l-0.173,0.145c-0.816,0.679-0.995,0.99-0.767,1.331
				c0.09,0.133,0.282,0.311,0.918,0.311c0.161,0,0.32-0.01,0.468-0.021c0.472-0.034,0.941-0.066,1.413-0.076l0.365-0.004
				c0.941,0,2.333,0.077,3.545,0.743c0.242,0.133,0.907,0.658,0.777,1.3c-0.033,0.164-0.2,0.695-0.961,0.695l0,0
				c-0.294,0-0.596-0.081-0.775-0.128c-0.757-0.2-1.967-0.269-2.799-0.173c-1.688,0.195-2.985,0.604-4.082,1.287
				c-0.577,0.358-1.119,0.766-1.526,1.08L7.851,17.589z M7.217,15.846c0.222,0.184,0.429,0.349,0.619,0.494
				c0.377-0.284,0.828-0.609,1.308-0.907c1.227-0.764,2.655-1.218,4.495-1.431c0.284-0.033,0.614-0.05,0.962-0.05
				c0.805,0,1.592,0.086,2.157,0.236c0.13,0.035,0.278,0.074,0.412,0.094c-0.047-0.041-0.098-0.082-0.14-0.105
				c-1.011-0.556-2.232-0.62-3.063-0.62l-0.345,0.004c-0.455,0.009-0.908,0.042-1.361,0.073c-0.17,0.013-0.354,0.024-0.54,0.024
				c-0.307,0-1.241,0-1.748-0.752c-0.801-1.194,0.386-2.182,0.956-2.657l0.162-0.136c0.702-0.603,1.424-1.343,2.205-2.263
				c0.48-0.565,0.836-1.15,1.058-1.738c-0.193,0.23-0.389,0.46-0.603,0.672c-1.505,1.497-3.348,2.483-5.327,2.852
				C8.018,9.712,7.633,9.762,7.259,9.81c-1.125,0.145-2.096,0.271-3.332,1.099c-0.044,0.029-0.088,0.059-0.132,0.09
				c0.012-0.004,0.024-0.008,0.036-0.013c0.364-0.119,0.966-0.282,1.645-0.282c1.479,0,2.383,0.799,2.421,2.138
				c0.023,0.769-0.141,1.44-0.311,2.063C7.499,15.223,7.375,15.537,7.217,15.846z"/>
		</g>
	</g>
</g>
<g id="Layer_4" display="none">
</g>
</svg>
