<?xml version="1.0" encoding="utf-8"?>
<!-- Generator: Adobe Illustrator 16.0.0, SVG Export Plug-In . SVG Version: 6.00 Build 0)  -->
<!DOCTYPE svg PUBLIC "-//W3C//DTD SVG 1.1//EN" "http://www.w3.org/Graphics/SVG/1.1/DTD/svg11.dtd">
<svg version="1.1" xmlns="http://www.w3.org/2000/svg" xmlns:xlink="http://www.w3.org/1999/xlink" x="0px" y="0px" width="20px"
	 height="21px" viewBox="0 0 20 21" enable-background="new 0 0 20 21" xml:space="preserve">
<g id="Layer_3">
</g>
<g id="Layer_1">
</g>
<g id="menu">
	<g>
		<path fill-rule="evenodd" clip-rule="evenodd" fill="#FFFFFF" d="M0.073,16.436c0.302-3.304,0.6-6.581,0.898-9.869
			c0.214,0,0.403,0,0.613,0c0.032-0.355,0.071-0.698,0.093-1.042c0.019-0.295,0.01-0.295,0.302-0.291c0.109,0.002,0.217,0,0.341,0
			C2.363,4.79,2.405,4.352,2.443,3.944c0.497,0,0.977-0.029,1.451,0.006c0.972,0.072,1.93,0.235,2.862,0.524
			C7.701,4.766,8.592,5.164,9.358,5.8C9.553,5.961,9.728,6.144,9.915,6.32c0.247-0.219,0.485-0.453,0.747-0.655
			c0.832-0.643,1.789-1.027,2.793-1.297c1.25-0.336,2.529-0.47,3.82-0.466c0.036,0,0.067,0.005,0.126,0.01
			c0.04,0.434,0.08,0.866,0.123,1.323c0.147,0,0.296,0.014,0.443-0.004c0.17-0.021,0.188,0.076,0.198,0.205
			c0.027,0.366,0.058,0.733,0.09,1.12c0.201,0,0.396,0,0.618,0c0.3,3.293,0.598,6.568,0.898,9.878c-0.097,0-0.174,0-0.253,0
			c-2.652,0-5.304,0.001-7.956-0.002c-0.146,0-0.252,0.036-0.358,0.143c-0.7,0.696-1.869,0.697-2.561,0.002
			c-0.107-0.108-0.211-0.145-0.357-0.145c-2.666,0.003-5.33,0.003-7.997,0.003C0.229,16.436,0.17,16.436,0.073,16.436z
			 M16.791,4.562c-0.468,0.039-0.908,0.069-1.351,0.114c-1.024,0.104-2.021,0.337-2.975,0.738c-0.739,0.312-1.426,0.709-1.978,1.309
			c-0.115,0.125-0.242,0.24-0.241,0.449c0.006,2.693,0.004,5.386,0.004,8.08c0,0.057,0.008,0.112,0.015,0.192
			c2.224-1.475,4.645-2.247,7.303-2.33C17.311,10.264,17.054,7.434,16.791,4.562z M9.587,15.45c0.004-0.075,0.008-0.108,0.008-0.141
			c0-2.728,0.002-5.454-0.003-8.181c0-0.073-0.033-0.158-0.078-0.217C9.212,6.514,8.832,6.203,8.41,5.946
			C6.806,4.971,5.025,4.645,3.18,4.591C3.133,4.59,3.046,4.662,3.039,4.707C2.977,5.344,2.924,5.982,2.868,6.62
			C2.821,7.143,2.774,7.666,2.727,8.189C2.666,8.854,2.602,9.52,2.54,10.184c-0.065,0.706-0.131,1.412-0.195,2.118
			C2.32,12.57,2.308,12.839,2.287,13.12c1.322,0.025,2.585,0.247,3.815,0.637C7.332,14.147,8.484,14.709,9.587,15.45z M1.542,14.437
			c2.101,0.133,4.157,0.357,6.211,0.733c-1.238-0.819-4.785-1.604-6.149-1.362C1.583,14.007,1.563,14.208,1.542,14.437z
			 M18.303,14.438c-0.02-0.229-0.039-0.435-0.059-0.637c-1.62-0.176-5.25,0.634-6.122,1.365
			C14.158,14.793,16.206,14.569,18.303,14.438z M7.075,15.748c-2.054-0.348-4.118-0.611-6.209-0.656
			c-0.021,0.24-0.039,0.442-0.058,0.656C2.914,15.748,4.995,15.748,7.075,15.748z M18.98,15.12c-0.755-0.121-5.458,0.41-6.216,0.628
			c2.088,0,4.167,0,6.273,0C19.019,15.529,18.999,15.322,18.98,15.12z"/>
	</g>
</g>
<g id="Layer_4" display="none">
</g>
</svg>
